<svg width="28" height="30" viewBox="0 0 28 30" fill="none" xmlns="http://www.w3.org/2000/svg">
<path d="M25.4828 2.8541C21.794 1.13161 17.7944 0.174493 13.7255 0.0405273C9.65654 0.174493 5.65696 1.13161 1.96817 2.8541C1.49453 3.07665 1.09467 3.4304 0.816062 3.87339C0.537451 4.31639 0.391782 4.83001 0.396344 5.35331V23.8066C0.391782 24.3299 0.537451 24.8435 0.816062 25.2865C1.09467 25.7295 1.49453 26.0833 1.96817 26.3058C5.65696 28.0283 9.65654 28.9854 13.7255 29.1194C17.7944 28.9854 21.794 28.0283 25.4828 26.3058C25.9564 26.0833 26.3563 25.7295 26.6349 25.2865C26.9135 24.8435 27.0591 24.3299 27.0546 23.8066V5.35331C27.0591 4.83001 26.9135 4.31639 26.6349 3.87339C26.3563 3.4304 25.9564 3.07665 25.4828 2.8541ZM24.7283 15.4287C21.284 17.0726 17.5393 17.9927 13.7255 18.1323C9.91162 17.9927 6.16689 17.0726 2.72265 15.4287V9.36148C6.19587 10.8887 9.93267 11.7268 13.7255 11.8293C17.5183 11.7268 21.2551 10.8887 24.7283 9.36148V15.4287ZM2.95843 4.99179C6.33536 3.40873 9.99809 2.52646 13.7255 2.39827C17.4575 2.5291 21.1249 3.41119 24.5082 4.99179C24.5744 5.02623 24.6299 5.07812 24.6687 5.14185C24.7075 5.20558 24.7281 5.27871 24.7283 5.35331V6.72081C21.284 8.36462 17.5393 9.28475 13.7255 9.42435C9.91162 9.28475 6.16689 8.36462 2.72265 6.72081V5.30616C2.7309 5.23767 2.75704 5.17257 2.79842 5.11739C2.83981 5.0622 2.89499 5.01889 2.95843 4.99179ZM24.4925 24.1681C21.1156 25.7512 17.4528 26.6334 13.7255 26.7616C9.99341 26.6308 6.32606 25.7487 2.94271 24.1681C2.87652 24.1337 2.82103 24.0818 2.78224 24.0181C2.74345 23.9543 2.72284 23.8812 2.72265 23.8066V18.0065C6.19587 19.5338 9.93267 20.3719 13.7255 20.4743C17.5183 20.3719 21.2551 19.5338 24.7283 18.0065V23.8066C24.7285 23.8833 24.7064 23.9584 24.6645 24.0226C24.6226 24.0869 24.5628 24.1374 24.4925 24.1681Z" fill="#C8FB39"/>
</svg>
