<svg width="38" height="38" viewBox="0 0 38 38" fill="none" xmlns="http://www.w3.org/2000/svg">
<path d="M21.4883 15.5941H16.7729C16.0446 15.59 15.3473 15.2988 14.8324 14.7839C14.3174 14.2689 14.0263 13.5716 14.0222 12.8434V8.1279C14.0263 7.39964 14.3174 6.70238 14.8324 6.18742C15.3473 5.67245 16.0446 5.38132 16.7729 5.3772H21.4883C22.2166 5.38132 22.9139 5.67245 23.4288 6.18742C23.9438 6.70238 24.2349 7.39964 24.2391 8.1279V12.8434C24.2349 13.5716 23.9438 14.2689 23.4288 14.7839C22.9139 15.2988 22.2166 15.59 21.4883 15.5941ZM16.7729 7.73494C16.6686 7.73494 16.5687 7.77634 16.495 7.85004C16.4213 7.92373 16.3799 8.02368 16.3799 8.1279V12.8434C16.3799 12.9476 16.4213 13.0476 16.495 13.1213C16.5687 13.1949 16.6686 13.2363 16.7729 13.2363H21.4883C21.5926 13.2363 21.6925 13.1949 21.7662 13.1213C21.8399 13.0476 21.8813 12.9476 21.8813 12.8434V8.1279C21.8813 8.02368 21.8399 7.92373 21.7662 7.85004C21.6925 7.77634 21.5926 7.73494 21.4883 7.73494H16.7729Z" fill="#C8FB39"/>
<path d="M9.69966 31.3124H6.556C5.82774 31.3082 5.13048 31.0171 4.61552 30.5021C4.10055 29.9872 3.80942 29.2899 3.8053 28.5617V25.418C3.80942 24.6897 4.10055 23.9925 4.61552 23.4775C5.13048 22.9626 5.82774 22.6714 6.556 22.6673H9.69966C10.4279 22.6714 11.1252 22.9626 11.6401 23.4775C12.1551 23.9925 12.4462 24.6897 12.4504 25.418V28.5617C12.4462 29.2899 12.1551 29.9872 11.6401 30.5021C11.1252 31.0171 10.4279 31.3082 9.69966 31.3124ZM6.556 25.025C6.45178 25.025 6.35183 25.0664 6.27814 25.1401C6.20444 25.2138 6.16304 25.3138 6.16304 25.418V28.5617C6.16304 28.6659 6.20444 28.7658 6.27814 28.8395C6.35183 28.9132 6.45178 28.9546 6.556 28.9546H9.69966C9.80388 28.9546 9.90383 28.9132 9.97752 28.8395C10.0512 28.7658 10.0926 28.6659 10.0926 28.5617V25.418C10.0926 25.3138 10.0512 25.2138 9.97752 25.1401C9.90383 25.0664 9.80388 25.025 9.69966 25.025H6.556Z" fill="#C8FB39"/>
<path d="M20.7025 31.3124H17.5588C16.8305 31.3082 16.1333 31.0171 15.6183 30.5021C15.1034 29.9872 14.8122 29.2899 14.8081 28.5617V25.418C14.8122 24.6897 15.1034 23.9925 15.6183 23.4775C16.1333 22.9626 16.8305 22.6714 17.5588 22.6673H20.7025C21.4307 22.6714 22.128 22.9626 22.6429 23.4775C23.1579 23.9925 23.449 24.6897 23.4532 25.418V28.5617C23.449 29.2899 23.1579 29.9872 22.6429 30.5021C22.128 31.0171 21.4307 31.3082 20.7025 31.3124ZM17.5588 25.025C17.4546 25.025 17.3546 25.0664 17.2809 25.1401C17.2073 25.2138 17.1659 25.3138 17.1659 25.418V28.5617C17.1659 28.6659 17.2073 28.7658 17.2809 28.8395C17.3546 28.9132 17.4546 28.9546 17.5588 28.9546H20.7025C20.8067 28.9546 20.9066 28.9132 20.9803 28.8395C21.054 28.7658 21.0954 28.6659 21.0954 28.5617V25.418C21.0954 25.3138 21.054 25.2138 20.9803 25.1401C20.9066 25.0664 20.8067 25.025 20.7025 25.025H17.5588Z" fill="#C8FB39"/>
<path d="M31.7053 31.3124H28.5616C27.8334 31.3082 27.1361 31.0171 26.6211 30.5021C26.1062 29.9872 25.815 29.2899 25.8109 28.5617V25.418C25.815 24.6897 26.1062 23.9925 26.6211 23.4775C27.1361 22.9626 27.8334 22.6714 28.5616 22.6673H31.7053C32.4335 22.6714 33.1308 22.9626 33.6458 23.4775C34.1607 23.9925 34.4519 24.6897 34.456 25.418V28.5617C34.4519 29.2899 34.1607 29.9872 33.6458 30.5021C33.1308 31.0171 32.4335 31.3082 31.7053 31.3124ZM28.5616 25.025C28.4574 25.025 28.3574 25.0664 28.2838 25.1401C28.2101 25.2138 28.1687 25.3138 28.1687 25.418V28.5617C28.1687 28.6659 28.2101 28.7658 28.2838 28.8395C28.3574 28.9132 28.4574 28.9546 28.5616 28.9546H31.7053C31.8095 28.9546 31.9094 28.9132 31.9831 28.8395C32.0568 28.7658 32.0982 28.6659 32.0982 28.5617V25.418C32.0982 25.3138 32.0568 25.2138 31.9831 25.1401C31.9094 25.0664 31.8095 25.025 31.7053 25.025H28.5616Z" fill="#C8FB39"/>
<path d="M30.1334 25.0251C29.822 25.021 29.5245 24.8955 29.3043 24.6753C29.0841 24.4551 28.9586 24.1576 28.9545 23.8462V20.7025C28.9545 20.5983 28.9131 20.4984 28.8394 20.4247C28.7657 20.351 28.6658 20.3096 28.5616 20.3096H9.69962C9.5954 20.3096 9.49545 20.351 9.42175 20.4247C9.34806 20.4984 9.30666 20.5983 9.30666 20.7025V23.8462C9.30666 24.1589 9.18246 24.4587 8.96138 24.6798C8.74029 24.9009 8.44044 25.0251 8.12779 25.0251C7.81513 25.0251 7.51528 24.9009 7.2942 24.6798C7.07312 24.4587 6.94891 24.1589 6.94891 23.8462V20.7025C6.95304 19.9743 7.24417 19.277 7.75914 18.7621C8.2741 18.2471 8.97136 17.956 9.69962 17.9518H28.5616C29.2898 17.956 29.9871 18.2471 30.5021 18.7621C31.017 19.277 31.3082 19.9743 31.3123 20.7025V23.8462C31.3082 24.1576 31.1827 24.4551 30.9625 24.6753C30.7423 24.8955 30.4448 25.021 30.1334 25.0251Z" fill="#C8FB39"/>
<path d="M19.1307 25.0251C18.8193 25.021 18.5218 24.8955 18.3016 24.6753C18.0814 24.4551 17.9559 24.1576 17.9518 23.8462V14.4152C17.9518 14.1025 18.076 13.8027 18.2971 13.5816C18.5181 13.3605 18.818 13.2363 19.1307 13.2363C19.4433 13.2363 19.7432 13.3605 19.9642 13.5816C20.1853 13.8027 20.3095 14.1025 20.3095 14.4152V23.8462C20.3055 24.1576 20.1799 24.4551 19.9597 24.6753C19.7395 24.8955 19.442 25.021 19.1307 25.0251Z" fill="#C8FB39"/>
</svg>
