<svg width="1965" height="775" viewBox="0 0 1965 775" fill="none" xmlns="http://www.w3.org/2000/svg">
<mask id="mask0_7315_4594" style="mask-type:luminance" maskUnits="userSpaceOnUse" x="-36" y="-13" width="2001" height="1000">
<path d="M1965 986.663H-36V-13.0001H1965V986.663Z" fill="white"/>
</mask>
<g mask="url(#mask0_7315_4594)">
<path d="M1583.66 1052.04C1561.36 1064.04 1531.83 1064.04 1509.53 1052.04L999.927 777.768C996.155 775.749 994.023 772.467 994.023 768.933V673.637C994.023 664.928 1006.65 659.879 1016 664.802L1509.53 930.116C1531.83 942.107 1561.36 942.107 1583.66 930.116L2077.51 664.802C2086.7 659.879 2099.49 664.928 2099.49 673.637V768.933C2099.49 772.467 2097.2 775.749 2093.59 777.768L1583.66 1052.04Z" fill="url(#paint0_linear_7315_4594)" fill-opacity="0.1"/>
<path d="M1509.69 821.819L999.927 547.543C996.155 545.524 994.023 542.242 994.023 538.708V443.412C994.023 434.703 1006.65 429.654 1016 434.576L1509.53 700.017C1531.83 712.008 1561.36 712.008 1583.66 700.017L2077.51 434.703C2086.7 429.78 2099.49 434.829 2099.49 443.538V538.834C2099.49 542.368 2097.2 545.65 2093.59 547.67L1583.66 821.819C1561.52 833.81 1531.83 833.81 1509.69 821.819Z" fill="url(#paint1_linear_7315_4594)" fill-opacity="0.1"/>
<path d="M1583.66 591.594C1561.36 603.585 1531.83 603.585 1509.53 591.594L999.927 317.318C996.155 315.298 994.023 312.016 994.023 308.482V213.186C994.023 204.477 1006.65 199.428 1016 204.351L1509.53 469.665C1531.83 481.656 1561.36 481.656 1583.66 469.665L1763.26 373.107C1771.13 368.816 1771.13 359.728 1763.26 355.562L1587.6 261.024C1565.29 249.033 1535.77 249.033 1513.46 261.024L1423.75 303.686C1418.99 305.958 1413.08 305.832 1408.49 303.307L1319.6 255.47C1311.56 251.178 1311.72 241.964 1319.92 237.673L1513.3 139.221C1535.6 127.23 1565.13 127.23 1587.43 139.221L1884.63 299.394C1889.39 301.919 1895.78 301.919 1900.54 299.394L1969.76 262.286C1977.63 257.994 1977.63 248.906 1969.76 244.741L1583.83 37.1093C1561.52 25.1183 1532 25.1183 1509.69 37.1093L1216.76 194.632C1212 197.156 1205.6 197.156 1200.85 194.632L1112.11 146.921C1104.24 142.629 1104.24 133.668 1112.11 129.376L1509.69 -84.5668C1532 -96.5577 1561.52 -96.5577 1583.83 -84.5668L2093.42 189.709C2097.2 191.729 2099.33 195.011 2099.33 198.545V308.861C2099.33 312.395 2097.03 315.677 2093.42 317.696L1583.66 591.594Z" fill="url(#paint2_linear_7315_4594)" fill-opacity="0.15"/>
</g>
<defs>
<linearGradient id="paint0_linear_7315_4594" x1="2177.11" y1="977.705" x2="651.69" y2="163.309" gradientUnits="userSpaceOnUse">
<stop offset="0.1948" stop-color="#101010"/>
<stop offset="0.2555" stop-color="#111115"/>
<stop offset="0.3275" stop-color="#131623"/>
<stop offset="0.4051" stop-color="#171D3B"/>
<stop offset="0.4867" stop-color="#1D275D"/>
<stop offset="0.5716" stop-color="#253388"/>
<stop offset="0.6578" stop-color="#2D42BB"/>
<stop offset="0.7308" stop-color="#3651ED"/>
</linearGradient>
<linearGradient id="paint1_linear_7315_4594" x1="2282.28" y1="780.726" x2="756.853" y2="-33.6697" gradientUnits="userSpaceOnUse">
<stop offset="0.1948" stop-color="#101010"/>
<stop offset="0.2555" stop-color="#111115"/>
<stop offset="0.3275" stop-color="#131623"/>
<stop offset="0.4051" stop-color="#171D3B"/>
<stop offset="0.4867" stop-color="#1D275D"/>
<stop offset="0.5716" stop-color="#253388"/>
<stop offset="0.6578" stop-color="#2D42BB"/>
<stop offset="0.7308" stop-color="#3651ED"/>
</linearGradient>
<linearGradient id="paint2_linear_7315_4594" x1="2416.89" y1="528.58" x2="891.469" y2="-285.816" gradientUnits="userSpaceOnUse">
<stop offset="0.1948" stop-color="#101010"/>
<stop offset="0.2555" stop-color="#111115"/>
<stop offset="0.3275" stop-color="#131623"/>
<stop offset="0.4051" stop-color="#171D3B"/>
<stop offset="0.4867" stop-color="#1D275D"/>
<stop offset="0.5716" stop-color="#253388"/>
<stop offset="0.6578" stop-color="#2D42BB"/>
<stop offset="0.7308" stop-color="#3651ED"/>
</linearGradient>
</defs>
</svg>
