<svg width="20" height="20" viewBox="0 0 20 20" fill="none" xmlns="http://www.w3.org/2000/svg">
<path fill-rule="evenodd" clip-rule="evenodd" d="M0 4.19357C0 3.6591 0.433273 3.22583 0.967742 3.22583H19.0323C19.5667 3.22583 20 3.6591 20 4.19357C20 4.72804 19.5667 5.16131 19.0323 5.16131H0.967742C0.433273 5.16131 0 4.72804 0 4.19357ZM0 10C0 9.46555 0.433273 9.03228 0.967742 9.03228H19.0323C19.5667 9.03228 20 9.46555 20 10C20 10.5345 19.5667 10.9678 19.0323 10.9678H0.967742C0.433273 10.9678 0 10.5345 0 10ZM0.967742 14.8387C0.433273 14.8387 0 15.272 0 15.8065C0 16.3409 0.433273 16.7742 0.967742 16.7742H19.0323C19.5667 16.7742 20 16.3409 20 15.8065C20 15.272 19.5667 14.8387 19.0323 14.8387H0.967742Z" fill="#EDEEF2"/>
</svg>
