<svg width="16" height="16" viewBox="0 0 16 16" fill="none" xmlns="http://www.w3.org/2000/svg">
<path fill-rule="evenodd" clip-rule="evenodd" d="M2.51709 1.20099C2.15373 0.837626 1.5646 0.837626 1.20123 1.20099C0.83787 1.56435 0.83787 2.15348 1.20123 2.51685L6.68428 7.9999L1.20123 13.4829C0.83787 13.8463 0.83787 14.4354 1.20123 14.7988C1.5646 15.1622 2.15373 15.1622 2.51709 14.7988L8.00014 9.31575L13.4832 14.7988C13.8466 15.1622 14.4357 15.1622 14.799 14.7988C15.1624 14.4354 15.1624 13.8463 14.799 13.4829L9.316 7.9999L14.799 2.51685C15.1624 2.15348 15.1624 1.56435 14.799 1.20099C14.4357 0.837626 13.8466 0.837626 13.4832 1.20099L8.00014 6.68404L2.51709 1.20099Z" fill="#EDEEF2"/>
</svg>
