<svg width="24" height="24" viewBox="0 0 24 24" fill="none" xmlns="http://www.w3.org/2000/svg">
<path d="M12.0001 0.296265C5.3735 0.296265 0 5.66877 0 12.2964C0 17.5983 3.43839 22.0965 8.2064 23.6832C8.80613 23.7943 9.02631 23.4229 9.02631 23.106C9.02631 22.8198 9.01518 21.8745 9.01001 20.8718C5.67157 21.5977 4.96712 19.4559 4.96712 19.4559C4.42125 18.0689 3.63473 17.7001 3.63473 17.7001C2.54596 16.9553 3.7168 16.9706 3.7168 16.9706C4.92181 17.0552 5.55632 18.2072 5.55632 18.2072C6.6266 20.0417 8.36359 19.5114 9.04836 19.2047C9.15607 18.4292 9.46706 17.8998 9.81024 17.6001C7.14486 17.2967 4.34295 16.2677 4.34295 11.6696C4.34295 10.3595 4.81172 9.28899 5.57937 8.44861C5.45477 8.14637 5.04402 6.92585 5.69562 5.27292C5.69562 5.27292 6.70331 4.95041 8.9965 6.50298C9.95372 6.2371 10.9803 6.10376 12.0001 6.09919C13.0199 6.10376 14.0473 6.2371 15.0063 6.50298C17.2967 4.95041 18.303 5.27292 18.303 5.27292C18.9562 6.92585 18.5452 8.14637 18.4206 8.44861C19.1901 9.28899 19.6557 10.3595 19.6557 11.6696C19.6557 16.2786 16.8484 17.2935 14.1762 17.5906C14.6067 17.963 14.9902 18.6933 14.9902 19.8128C14.9902 21.4184 14.9763 22.7107 14.9763 23.106C14.9763 23.4253 15.1923 23.7995 15.8006 23.6816C20.566 22.0931 24 17.5965 24 12.2964C24 5.66877 18.6273 0.296265 12.0001 0.296265ZM4.49443 17.3907C4.468 17.4503 4.3742 17.4682 4.28876 17.4272C4.20172 17.3881 4.15283 17.3068 4.18105 17.247C4.20688 17.1856 4.30088 17.1685 4.38772 17.2096C4.47495 17.2488 4.52463 17.3308 4.49443 17.3907ZM5.0847 17.9174C5.02747 17.9704 4.91559 17.9458 4.83968 17.8619C4.76119 17.7782 4.74648 17.6664 4.80451 17.6125C4.86353 17.5595 4.97203 17.5843 5.05072 17.668C5.12921 17.7526 5.14451 17.8637 5.0847 17.9174ZM5.48965 18.5912C5.41612 18.6423 5.2959 18.5944 5.22158 18.4877C5.14805 18.381 5.14805 18.253 5.22317 18.2018C5.29769 18.1505 5.41612 18.1966 5.49144 18.3025C5.56476 18.411 5.56476 18.539 5.48965 18.5912ZM6.1745 19.3717C6.10873 19.4442 5.96863 19.4247 5.86609 19.3258C5.76117 19.229 5.73196 19.0917 5.79793 19.0192C5.8645 18.9464 6.00539 18.9669 6.10873 19.0651C6.21285 19.1616 6.24465 19.3 6.1745 19.3717ZM7.05961 19.6352C7.0306 19.7292 6.89567 19.7719 6.75975 19.7319C6.62402 19.6908 6.5352 19.5807 6.56262 19.4857C6.59084 19.3911 6.72636 19.3466 6.86328 19.3893C6.9988 19.4303 7.08783 19.5396 7.05961 19.6352ZM8.0669 19.7469C8.07028 19.8459 7.95502 19.9279 7.81235 19.9297C7.66887 19.9329 7.55282 19.8528 7.55123 19.7555C7.55123 19.6555 7.6639 19.5742 7.80738 19.5718C7.95006 19.5691 8.0669 19.6486 8.0669 19.7469ZM9.05645 19.709C9.07354 19.8056 8.97438 19.9047 8.8327 19.9312C8.6934 19.9566 8.56443 19.897 8.54674 19.8012C8.52946 19.7022 8.6304 19.6031 8.7695 19.5774C8.91139 19.5528 9.03837 19.6108 9.05645 19.709Z" fill="#E2E8F0"/>
</svg>
