<svg width="192" height="40" viewBox="0 0 192 40" fill="none" xmlns="http://www.w3.org/2000/svg">
<path d="M45.7473 10.7256C43.6679 10.7256 42.0926 11.5458 42.0926 13.8802C42.0926 16.2146 44.172 16.9717 45.9364 17.7919C49.087 19.1168 51.8596 20.3155 51.7965 23.8487C51.7965 27.5711 49.6541 29.2745 45.6843 29.2745C42.0296 29.2745 39.32 27.6341 39.32 22.7761V22.6499L41.5885 22.7761C41.6515 26.12 43.3528 27.2556 45.8103 27.2556C48.2678 27.2556 49.7171 26.2461 49.6541 23.7225C49.5281 18.8013 39.9501 20.1894 39.9501 13.8802C39.9501 9.96853 42.6597 8.83289 45.8103 8.83289C49.213 8.83289 51.6705 10.284 51.7335 14.6373V14.8266L49.5911 14.7004C49.5911 11.5458 48.1418 10.7256 45.7473 10.7256Z" fill="white"/>
<path d="M57.0896 14.8896V9.08521H59.1691V14.8896H65.5333V16.6562H59.106V24.3533C59.106 25.8675 60.2403 26.9401 62.1307 27.1294C63.2649 27.2556 64.6512 27.1925 65.5333 27.1925V28.8959C64.5251 28.8959 63.0128 28.959 61.7526 28.8328C58.854 28.5805 57.0266 27.0032 57.0266 24.4795V16.6562H54.191V14.8896H57.0896Z" fill="white"/>
<path d="M78.1989 14.8896H80.5304V16.6562H78.1989C75.6154 16.6562 73.473 18.4859 73.473 21.1357V27.2556H76.3715V28.959H68.621V27.2556H71.3935V16.6562H68.621V14.8896H73.0319V17.5395C74.1031 15.836 75.9935 14.8896 78.1989 14.8896Z" fill="white"/>
<path d="M95.3384 28.896H93.5111L93.4481 26.2461C92.6289 28.1389 90.8645 29.2114 88.9741 29.2114C85.5084 29.2745 83.5551 26.6878 83.5551 23.407V14.8896H85.6345V23.3439C85.6345 25.9307 87.3988 27.2556 89.4783 27.2556C91.5577 27.2556 93.322 25.8676 93.322 23.3439V14.8896H95.4015V28.896H95.3384Z" fill="white"/>
<path d="M106.429 29.2114C102.144 29.2114 99.1191 26.3723 99.1191 21.9559C99.1191 17.4133 102.144 14.5742 106.429 14.5742C109.768 14.5742 112.352 16.1515 113.171 19.0537L111.155 19.3692C110.398 17.6026 108.76 16.467 106.492 16.467C103.341 16.467 101.199 18.7383 101.199 21.9559C101.199 25.1105 103.404 27.3187 106.492 27.3187C108.697 27.3187 110.335 26.2461 111.155 24.5427L113.171 24.8581C112.352 27.6342 109.705 29.2114 106.429 29.2114Z" fill="white"/>
<path d="M118.023 14.8896V9.08521H120.102V14.8896H126.53V16.6562H120.102V24.3533C120.102 25.8675 121.237 26.9401 123.127 27.1294C124.261 27.2556 125.648 27.1925 126.53 27.1925V28.8959C125.522 28.8959 124.009 28.959 122.749 28.8328C119.85 28.5805 118.023 27.0032 118.023 24.4795V16.6562H115.124V14.8896H118.023Z" fill="white"/>
<path d="M141.716 28.896H139.888L139.825 26.2461C139.006 28.1389 137.242 29.2114 135.351 29.2114C131.886 29.2745 129.932 26.6878 129.932 23.407V14.8896H132.012V23.3439C132.012 25.9307 133.776 27.2556 135.856 27.2556C137.935 27.2556 139.699 25.8676 139.699 23.3439V14.8896H141.779V28.896H141.716Z" fill="white"/>
<path d="M155.768 14.8896H158.099V16.6562H155.768C153.184 16.6562 151.042 18.4859 151.042 21.1357V27.2556H153.94V28.959H146.19V27.2556H148.962V16.6562H146.19V14.8896H150.601V17.5395C151.672 15.836 153.562 14.8896 155.768 14.8896Z" fill="white"/>
<path d="M167.236 14.5742C172.151 14.5742 174.924 17.6026 174.609 22.5868H162.006C162.069 23.7856 162.384 24.795 163.14 25.6783C164.211 26.8771 165.535 27.3818 167.299 27.3818C169.315 27.4449 170.891 26.6247 171.899 25.426L173.348 26.5616C171.836 28.5174 169.883 29.2745 167.236 29.2745C162.573 29.2745 159.801 26.4354 159.801 21.9559C159.927 17.3502 162.762 14.5742 167.236 14.5742ZM171.269 17.9812C170.198 16.8455 168.937 16.4039 167.299 16.4039C165.598 16.4039 164.148 16.9086 163.203 18.1073C162.51 18.8644 162.195 19.8108 162.069 20.9465H172.466C172.403 19.6846 172.025 18.7383 171.269 17.9812Z" fill="white"/>
<path d="M182.422 27.3187C184.312 27.3187 185.132 26.3723 185.132 25.2367C185.132 23.7856 183.808 23.2178 182.233 22.6499C179.397 21.5774 177.885 20.5048 177.885 18.3597C177.885 16.2146 179.839 14.6373 182.485 14.6373C185.384 14.6373 187.085 16.4039 187.148 18.9906H185.132C185.132 17.4134 184.123 16.5301 182.485 16.5301C181.036 16.5301 179.902 17.2872 179.902 18.4859C179.902 19.937 181.162 20.4417 182.863 21.0096C185.384 21.8928 187.148 22.9654 187.148 25.426C187.148 27.508 185.384 29.3376 182.296 29.3376C179.587 29.3376 177.633 27.4449 177.444 24.9843H179.46C179.713 26.3093 180.784 27.3187 182.422 27.3187Z" fill="white"/>
<path d="M189.227 27.5079H189.669V28.7066H189.984V27.5079H190.425V27.2555H189.227V27.5079Z" fill="white"/>
<path d="M191.307 28.265L191.055 27.2555H190.614V28.7066H190.866V27.571L191.181 28.7066H191.433L191.748 27.571V28.7066H192V27.2555H191.559L191.307 28.265Z" fill="white"/>
<path d="M15.6902 0.315483C15.1231 -0.126157 14.3039 -0.126157 13.7368 0.315483L0.189038 9.77921C0.0630128 9.90539 0 9.96848 0 10.0947V13.3754C0 13.6909 0.315064 13.8802 0.567115 13.6909L13.7368 4.54261C14.3039 4.10097 15.1231 4.10097 15.6902 4.54261L28.8599 13.754C29.1119 13.9432 29.427 13.754 29.427 13.4385V10.0947C29.427 9.96848 29.364 9.8423 29.2379 9.77921L15.6902 0.315483Z" fill="#C8FB39"/>
<path d="M13.7368 8.26499L0.189038 17.7918C0.0630128 17.8549 0 17.9811 0 18.1073V21.388C0 21.7035 0.315064 21.8928 0.567115 21.7035L13.6738 12.4921C14.2409 12.0505 15.0601 12.0505 15.6272 12.4921L28.7968 21.7035C29.0489 21.8928 29.364 21.7035 29.364 21.388V18.1073C29.364 17.9811 29.3009 17.8549 29.1749 17.7918L15.6902 8.26499C15.1231 7.88644 14.3039 7.88644 13.7368 8.26499Z" fill="#C8FB39"/>
<path d="M15.6902 16.2776C15.1231 15.836 14.3039 15.836 13.7368 16.2776L0.189038 25.7414C0.0630128 25.8045 0 25.9306 0 26.0568V29.3376C0 29.653 0.315064 29.8423 0.567115 29.653L13.6738 20.4417C14.2409 20 15.0601 20 15.6272 20.4417L20.4161 23.7855C20.6052 23.9117 20.6052 24.2272 20.4161 24.4164L15.7532 27.6972C15.1861 28.1388 14.3669 28.1388 13.7998 27.6972L11.4053 26.2461C11.2793 26.183 11.0903 26.183 11.0272 26.2461L8.63275 27.8865C8.44372 28.0127 8.44372 28.3281 8.63275 28.5174L13.7998 31.9243C14.3669 32.366 15.1861 32.366 15.7532 31.9243L23.6928 26.3723C23.8188 26.3092 24.0079 26.3092 24.1339 26.3723L25.9613 27.6341C26.1503 27.7603 26.1503 28.0757 25.9613 28.265L15.6902 35.4575C15.1231 35.8991 14.3039 35.8991 13.7368 35.4575L5.9232 30.0316C5.79718 29.9685 5.60814 29.9685 5.48211 30.0316L3.15064 31.672C2.9616 31.7981 2.9616 32.1136 3.15064 32.3029L13.7368 39.6846C14.3039 40.1262 15.1231 40.1262 15.6902 39.6846L29.2379 30.1578C29.364 30.0947 29.427 29.9685 29.427 29.8423V25.9937C29.427 25.8675 29.364 25.7414 29.2379 25.6783L15.6902 16.2776Z" fill="#C8FB39"/>
</svg>
