<svg width="10" height="10" viewBox="0 0 10 10" fill="none" xmlns="http://www.w3.org/2000/svg">
<g clip-path="url(#clip0_50_4339)">
<path d="M5.05241 10C4.8371 10 4.62005 9.9873 4.40127 9.95959C2.1563 9.67904 0.322347 7.84509 0.0412213 5.59897C-0.287817 2.96955 1.40817 0.569883 3.98621 0.0168682C4.26734 -0.0443213 4.54616 0.0636263 4.71472 0.297417C4.88616 0.535248 4.89944 0.852741 4.74935 1.10616C4.39261 1.70882 4.25926 2.40037 4.3649 3.10579C4.55828 4.40116 5.5985 5.44196 6.89445 5.63534C7.59986 5.74271 8.29084 5.60821 8.89408 5.25088C9.14692 5.1008 9.46499 5.11407 9.70282 5.2861C9.93603 5.45408 10.044 5.7329 9.98337 6.0146C9.47653 8.3779 7.41745 10 5.05241 10ZM3.8546 0.942793C1.89654 1.52005 0.641572 3.41982 0.900761 5.4916C1.1334 7.35038 2.65101 8.86799 4.50921 9.10005C6.58158 9.35866 8.48076 8.10428 9.05802 6.14564C8.34972 6.49257 7.56292 6.61091 6.76688 6.49257C5.09744 6.24262 3.75762 4.9028 3.50882 3.23336C3.38933 2.43559 3.50882 1.65051 3.8546 0.942793Z" fill="white" fill-opacity="0.8"/>
</g>
<defs>
<clipPath id="clip0_50_4339">
<rect width="10" height="10" fill="white"/>
</clipPath>
</defs>
</svg>
