<svg width="39" height="38" viewBox="0 0 39 38" fill="none" xmlns="http://www.w3.org/2000/svg">
<path d="M30.3886 8.29266H8.38303C7.65477 8.29679 6.95751 8.58792 6.44255 9.10289C5.92758 9.61785 5.63645 10.3151 5.63232 11.0434V26.7617C5.63645 27.4899 5.92758 28.1872 6.44255 28.7021C6.95751 29.2171 7.65477 29.5082 8.38303 29.5124H30.3886C31.1169 29.5082 31.8142 29.2171 32.3291 28.7021C32.8441 28.1872 33.1352 27.4899 33.1393 26.7617V11.0434C33.1352 10.3151 32.8441 9.61785 32.3291 9.10289C31.8142 8.58792 31.1169 8.29679 30.3886 8.29266ZM8.38303 10.6504H30.3886C30.4929 10.6504 30.5928 10.6918 30.6665 10.7655C30.7402 10.8392 30.7816 10.9391 30.7816 11.0434V14.58H7.99007V11.0434C7.99007 10.9391 8.03147 10.8392 8.10516 10.7655C8.17886 10.6918 8.27881 10.6504 8.38303 10.6504ZM30.3886 27.1546H8.38303C8.27881 27.1546 8.17886 27.1132 8.10516 27.0395C8.03147 26.9658 7.99007 26.8659 7.99007 26.7617V16.9377H30.7816V26.7617C30.7816 26.8659 30.7402 26.9658 30.6665 27.0395C30.5928 27.1132 30.4929 27.1546 30.3886 27.1546Z" fill="#C8FB39"/>
<path d="M14.6701 20.4744H11.5264C11.1095 20.4744 10.7097 20.64 10.415 20.9347C10.1202 21.2295 9.95459 21.6293 9.95459 22.0462C9.95459 22.4631 10.1202 22.8629 10.415 23.1576C10.7097 23.4524 11.1095 23.618 11.5264 23.618H14.6701C15.087 23.618 15.4868 23.4524 15.7815 23.1576C16.0763 22.8629 16.2419 22.4631 16.2419 22.0462C16.2419 21.6293 16.0763 21.2295 15.7815 20.9347C15.4868 20.64 15.087 20.4744 14.6701 20.4744Z" fill="#C8FB39"/>
</svg>
