<svg width="12" height="12" viewBox="0 0 12 12" fill="none" xmlns="http://www.w3.org/2000/svg">
<path d="M6 1.5V2.625M9.182 2.818L8.3865 3.6135M10.5 6H9.375M9.182 9.182L8.3865 8.3865M6 9.375V10.5M3.6135 8.3865L2.818 9.182M2.625 6H1.5M3.6135 3.6135L2.818 2.818M7.875 6C7.875 6.49728 7.67746 6.97419 7.32583 7.32583C6.97419 7.67746 6.49728 7.875 6 7.875C5.50272 7.875 5.02581 7.67746 4.67417 7.32583C4.32254 6.97419 4.125 6.49728 4.125 6C4.125 5.50272 4.32254 5.02581 4.67417 4.67417C5.02581 4.32254 5.50272 4.125 6 4.125C6.49728 4.125 6.97419 4.32254 7.32583 4.67417C7.67746 5.02581 7.875 5.50272 7.875 6Z" stroke="#101010" stroke-width="0.75" stroke-linecap="round" stroke-linejoin="round"/>
</svg>
