<svg width="35" height="35" viewBox="0 0 35 35" fill="none" xmlns="http://www.w3.org/2000/svg">
<rect width="35" height="35" rx="8" fill="#101010"/>
<path d="M17 10.25C17.4142 10.25 17.75 10.5858 17.75 11V17.25H24C24.4142 17.25 24.75 17.5858 24.75 18C24.75 18.4142 24.4142 18.75 24 18.75H17.75V25C17.75 25.4142 17.4142 25.75 17 25.75C16.5858 25.75 16.25 25.4142 16.25 25V18.75H10C9.58579 18.75 9.25 18.4142 9.25 18C9.25 17.5858 9.58579 17.25 10 17.25H16.25V11C16.25 10.5858 16.5858 10.25 17 10.25Z" fill="#C8FB39"/>
</svg>
