<svg width="24" height="24" viewBox="0 0 24 24" fill="none" xmlns="http://www.w3.org/2000/svg">
<g clip-path="url(#clip0_7258_78681)">
<path d="M16.6186 0C16.6744 0 16.7303 0 16.7893 0C16.9263 1.69253 16.2803 2.95719 15.4952 3.87301C14.7248 4.78251 13.6698 5.6646 11.9636 5.53076C11.8498 3.86247 12.4969 2.69161 13.281 1.77789C14.0081 0.92636 15.3413 0.168621 16.6186 0Z" fill="black"/>
<path d="M21.7837 17.6166C21.7837 17.6335 21.7837 17.6482 21.7837 17.6641C21.3042 19.1163 20.6202 20.3609 19.7855 21.516C19.0236 22.5646 18.0898 23.9757 16.4226 23.9757C14.9819 23.9757 14.025 23.0494 12.5485 23.0241C10.9867 22.9988 10.1278 23.7987 8.69976 24C8.53641 24 8.37306 24 8.21287 24C7.16426 23.8482 6.31799 23.0178 5.70147 22.2695C3.88353 20.0585 2.47871 17.2025 2.21735 13.5476C2.21735 13.1893 2.21735 12.832 2.21735 12.4737C2.328 9.85797 3.59898 7.73124 5.28835 6.70054C6.17993 6.15253 7.40559 5.68566 8.77037 5.89432C9.35527 5.98496 9.95282 6.1852 10.4766 6.38333C10.973 6.57408 11.5937 6.91237 12.1818 6.89446C12.5801 6.88286 12.9764 6.67525 13.3779 6.52876C14.5541 6.10405 15.707 5.61715 17.2267 5.84585C19.0531 6.12196 20.3493 6.93345 21.1503 8.18546C19.6053 9.16873 18.3839 10.6505 18.5925 13.1808C18.778 15.4794 20.1143 16.8241 21.7837 17.6166Z" fill="black"/>
</g>
<defs>
<clipPath id="clip0_7258_78681">
<rect width="24" height="24" fill="white"/>
</clipPath>
</defs>
</svg>
