<svg width="14" height="11" viewBox="0 0 14 11" fill="none" xmlns="http://www.w3.org/2000/svg">
<path fill-rule="evenodd" clip-rule="evenodd" d="M0 1.43548C0 1.06135 0.303291 0.758057 0.677419 0.758057H13.3226C13.6967 0.758057 14 1.06135 14 1.43548C14 1.8096 13.6967 2.1129 13.3226 2.1129H0.677419C0.303291 2.1129 0 1.8096 0 1.43548ZM0 5.49999C0 5.12586 0.303291 4.82257 0.677419 4.82257H13.3226C13.6967 4.82257 14 5.12586 14 5.49999C14 5.87412 13.6967 6.17741 13.3226 6.17741H0.677419C0.303291 6.17741 0 5.87412 0 5.49999ZM0.677419 8.88709C0.303291 8.88709 0 9.19038 0 9.56451C0 9.93864 0.303291 10.2419 0.677419 10.2419H13.3226C13.6967 10.2419 14 9.93864 14 9.56451C14 9.19038 13.6967 8.88709 13.3226 8.88709H0.677419Z" fill="#18181A"/>
</svg>
