<svg width="11" height="11" viewBox="0 0 11 11" fill="none" xmlns="http://www.w3.org/2000/svg">
<path fill-rule="evenodd" clip-rule="evenodd" d="M1.23541 0.211962C0.95279 -0.0706541 0.494578 -0.0706541 0.211962 0.211962C-0.0706541 0.494578 -0.0706541 0.95279 0.211962 1.23541L4.47656 5.5L0.211962 9.7646C-0.0706541 10.0472 -0.0706541 10.5054 0.211962 10.788C0.494578 11.0707 0.95279 11.0707 1.23541 10.788L5.5 6.52344L9.7646 10.788C10.0472 11.0707 10.5054 11.0707 10.788 10.788C11.0707 10.5054 11.0707 10.0472 10.788 9.7646L6.52344 5.5L10.788 1.23541C11.0707 0.95279 11.0707 0.494578 10.788 0.211962C10.5054 -0.0706541 10.0472 -0.0706541 9.7646 0.211962L5.5 4.47656L1.23541 0.211962Z" fill="#797B80"/>
</svg>
