<svg width="20" height="16" viewBox="0 0 20 16" fill="none" xmlns="http://www.w3.org/2000/svg">
<g clip-path="url(#clip0_7266_24641)">
<path fill-rule="evenodd" clip-rule="evenodd" d="M3.99999 14.4C3.99999 14.5262 4.12791 14.6286 4.28571 14.6286H6.85713L6.85713 1.37143H4.28571C4.12791 1.37143 3.99999 1.47376 3.99999 1.6L3.99999 14.4ZM4.28571 16H7.71428H15.7143C16.8188 16 17.7143 15.2837 17.7143 14.4V1.6C17.7143 0.716342 16.8188 0 15.7143 0H7.71428H4.28571C3.18114 0 2.28571 0.716342 2.28571 1.6L2.28571 14.4C2.28571 15.2837 3.18114 16 4.28571 16ZM15.7143 1.37143H8.57142V14.6286H15.7143C15.8721 14.6286 16 14.5262 16 14.4V1.6C16 1.47376 15.8721 1.37143 15.7143 1.37143Z" fill="white" fill-opacity="1"/>
<path d="M14 5L11 7.82353L14 11" stroke="white" stroke-opacity="1"/>
</g>
<defs>
<clipPath id="clip0_7266_24641">
<rect y="16" width="16" height="20" transform="rotate(-90 0 16)" fill="white"/>
</clipPath>
</defs>
</svg>
