<svg width="14" height="15" viewBox="0 0 14 15" fill="none" xmlns="http://www.w3.org/2000/svg">
<path fill-rule="evenodd" clip-rule="evenodd" d="M1.27273 2.40909C1.27273 2.05764 1.55764 1.77273 1.90909 1.77273H4.45455C4.806 1.77273 5.09091 2.05764 5.09091 2.40909V4.95455C5.09091 5.306 4.806 5.59091 4.45455 5.59091H1.90909C1.55764 5.59091 1.27273 5.306 1.27273 4.95455V2.40909ZM1.90909 0.5C0.854729 0.5 0 1.35473 0 2.40909V4.95455C0 6.00891 0.854729 6.86364 1.90909 6.86364H4.45455C5.50891 6.86364 6.36364 6.00891 6.36364 4.95455V2.40909C6.36364 1.35473 5.50891 0.5 4.45455 0.5H1.90909ZM1.27273 10.0455C1.27273 9.694 1.55764 9.40909 1.90909 9.40909H4.45455C4.806 9.40909 5.09091 9.694 5.09091 10.0455V12.5909C5.09091 12.9424 4.806 13.2273 4.45455 13.2273H1.90909C1.55764 13.2273 1.27273 12.9424 1.27273 12.5909V10.0455ZM1.90909 8.13636C0.854729 8.13636 0 8.99109 0 10.0455V12.5909C0 13.6453 0.854729 14.5 1.90909 14.5H4.45455C5.50891 14.5 6.36364 13.6453 6.36364 12.5909V10.0455C6.36364 8.99109 5.50891 8.13636 4.45455 8.13636H1.90909ZM9.54545 1.77273C9.194 1.77273 8.90909 2.05764 8.90909 2.40909V4.95455C8.90909 5.306 9.194 5.59091 9.54545 5.59091H12.0909C12.4424 5.59091 12.7273 5.306 12.7273 4.95455V2.40909C12.7273 2.05764 12.4424 1.77273 12.0909 1.77273H9.54545ZM7.63636 2.40909C7.63636 1.35473 8.49109 0.5 9.54545 0.5H12.0909C13.1453 0.5 14 1.35473 14 2.40909V4.95455C14 6.00891 13.1453 6.86364 12.0909 6.86364H9.54545C8.49109 6.86364 7.63636 6.00891 7.63636 4.95455V2.40909ZM8.90909 10.0455C8.90909 9.694 9.194 9.40909 9.54545 9.40909H12.0909C12.4424 9.40909 12.7273 9.694 12.7273 10.0455V12.5909C12.7273 12.9424 12.4424 13.2273 12.0909 13.2273H9.54545C9.194 13.2273 8.90909 12.9424 8.90909 12.5909V10.0455ZM9.54545 8.13636C8.49109 8.13636 7.63636 8.99109 7.63636 10.0455V12.5909C7.63636 13.6453 8.49109 14.5 9.54545 14.5H12.0909C13.1453 14.5 14 13.6453 14 12.5909V10.0455C14 8.99109 13.1453 8.13636 12.0909 8.13636H9.54545Z" fill="#797B80"/>
</svg>
