<svg width="20" height="19" viewBox="0 0 20 19" fill="none" xmlns="http://www.w3.org/2000/svg">
<path fill-rule="evenodd" clip-rule="evenodd" d="M9.48563 0.588908C9.79039 0.360338 10.2094 0.360338 10.5142 0.588908L17.3633 5.72577L17.3782 5.73691L19.657 7.44602C20.0357 7.73005 20.1125 8.2673 19.8284 8.64601C19.5444 9.02472 19.0071 9.10147 18.6284 8.81744L17.7142 8.13173V17.2745C17.7142 17.7479 17.3304 18.1317 16.857 18.1317H12.2856H7.71421H3.1428C2.66942 18.1317 2.28566 17.7479 2.28566 17.2745V8.13173L1.37138 8.81744C0.992673 9.10147 0.455417 9.02472 0.171387 8.64601C-0.112644 8.2673 -0.0358933 7.73005 0.342814 7.44602L2.62158 5.73694L2.63651 5.72575L9.48563 0.588908ZM8.57135 16.4174H11.4285V10.1317H8.57135V16.4174ZM13.1428 16.4174V9.27458C13.1428 8.80119 12.759 8.41744 12.2856 8.41744H7.71421C7.24082 8.41744 6.85707 8.80119 6.85707 9.27458V16.4174H3.99994V6.84602L9.99991 2.34604L15.9999 6.84602V16.4174H13.1428Z" fill="white" fill-opacity="1"/>
</svg>
