<svg width="20" height="21" viewBox="0 0 20 21" fill="none" xmlns="http://www.w3.org/2000/svg">
<path fill-rule="evenodd" clip-rule="evenodd" d="M3.33333 3.30488C2.50208 3.30488 1.81818 3.98877 1.81818 4.82003V15.7291C1.81818 16.5604 2.50208 17.2443 3.33333 17.2443H16.6667C17.4979 17.2443 18.1818 16.5604 18.1818 15.7291V9.06245C18.1818 8.2312 17.4979 7.5473 16.6667 7.5473H10C9.73461 7.5473 9.48248 7.43133 9.30977 7.22984L5.94551 3.30488H3.33333ZM0 4.82003C0 2.98462 1.49792 1.48669 3.33333 1.48669H6.36364C6.62902 1.48669 6.88116 1.60266 7.05387 1.80416L10.4181 5.72912H16.6667C18.5021 5.72912 20 7.22704 20 9.06245V15.7291C20 17.5645 18.5021 19.0625 16.6667 19.0625H3.33333C1.49792 19.0625 0 17.5645 0 15.7291V4.82003Z" fill="white" fill-opacity="1"/>
</svg>
