<svg width="24" height="24" viewBox="0 0 24 24" fill="none" xmlns="http://www.w3.org/2000/svg">
<g clip-path="url(#clip0_7258_78665)">
<path d="M23.9957 12.2629C23.9957 11.2796 23.9141 10.5621 23.7373 9.81799H12.2474V14.256H18.9918C18.8558 15.3589 18.1215 17.0198 16.4898 18.1359L16.467 18.2845L20.0998 21.0347L20.3515 21.0593C22.6631 18.9731 23.9957 15.9036 23.9957 12.2629Z" fill="#4285F4"/>
<path d="M12.2474 23.9559C15.5515 23.9559 18.3254 22.8929 20.3515 21.0593L16.4898 18.1359C15.4564 18.8402 14.0695 19.3318 12.2474 19.3318C9.01121 19.3318 6.26453 17.2457 5.28541 14.3624L5.14189 14.3743L1.36434 17.2311L1.31494 17.3653C3.32736 21.2718 7.46103 23.9559 12.2474 23.9559Z" fill="#34A853"/>
<path d="M5.28538 14.3624C5.02703 13.6183 4.87752 12.821 4.87752 11.9972C4.87752 11.1733 5.02703 10.3761 5.27179 9.63197L5.26495 9.47351L1.44006 6.5708L1.31491 6.62897C0.485503 8.25007 0.00958252 10.0705 0.00958252 11.9972C0.00958252 13.9238 0.485503 15.7442 1.31491 17.3653L5.28538 14.3624Z" fill="#FBBC05"/>
<path d="M12.2474 4.66242C14.5454 4.66242 16.0955 5.63241 16.9793 6.443L20.4331 3.14768C18.3119 1.22099 15.5515 0.0383911 12.2474 0.0383911C7.46103 0.0383911 3.32736 2.72246 1.31494 6.62895L5.27182 9.63196C6.26453 6.74859 9.01121 4.66242 12.2474 4.66242Z" fill="#EB4335"/>
</g>
<defs>
<clipPath id="clip0_7258_78665">
<rect width="24" height="24" fill="white"/>
</clipPath>
</defs>
</svg>
