<svg width="17" height="19" viewBox="0 0 17 19" fill="none" xmlns="http://www.w3.org/2000/svg">
<path fill-rule="evenodd" clip-rule="evenodd" d="M10.0139 2.92287L13.6572 5.05983C13.7598 4.94944 13.8797 4.85197 14.0156 4.77175C14.7712 4.33049 15.735 4.59249 16.1739 5.36011C16.6083 6.12773 16.3504 7.10679 15.5947 7.55265C15.4598 7.63143 15.3181 7.6878 15.1739 7.72287V11.9985C15.3166 12.0336 15.4567 12.0896 15.5902 12.1676C16.3504 12.6134 16.6083 13.5925 16.1694 14.3601C15.735 15.1277 14.7667 15.3897 14.0111 14.9485C13.8606 14.8606 13.7299 14.7513 13.6205 14.6264L9.99934 16.7503C10.0511 16.9092 10.0791 17.0792 10.0791 17.2559C10.0791 18.1385 9.37326 18.8601 8.49999 18.8601C7.62672 18.8601 6.92087 18.143 6.92087 17.2559C6.92087 17.0982 6.94317 16.9459 6.98475 16.802L3.34234 14.6657C3.24085 14.7739 3.12267 14.8695 2.9889 14.9485C2.22875 15.3897 1.26499 15.1277 0.830613 14.3601C0.396242 13.5925 0.65415 12.6134 1.40978 12.1676C1.54338 12.0895 1.68349 12.0335 1.82605 11.9984V7.72287C1.68184 7.6878 1.54015 7.63143 1.40525 7.55265C0.649625 7.11138 0.391717 6.12773 0.826089 5.36011C1.26046 4.59249 2.22875 4.33049 2.98437 4.77175C3.11958 4.85153 3.23885 4.94838 3.34106 5.05803L6.98542 2.9205C6.94341 2.77594 6.92087 2.62284 6.92087 2.4643C6.92087 1.57717 7.62672 0.860107 8.49999 0.860107C9.37326 0.860107 10.0791 1.57717 10.0791 2.4643C10.0791 2.6237 10.0563 2.77762 10.0139 2.92287ZM9.63426 3.58128L13.2863 5.72332C13.1734 6.1261 13.2149 6.57271 13.4364 6.96429C13.6588 7.35716 14.0209 7.61758 14.4228 7.71907V12C14.4023 12.0051 14.382 12.0106 14.3617 12.0166L9.59186 3.62407C9.60626 3.61008 9.6204 3.59581 9.63426 3.58128ZM7.40912 3.62504L2.63936 12.0174C2.61874 12.0113 2.598 12.0056 2.57715 12.0004V7.71907C2.97907 7.61758 3.34123 7.35716 3.56354 6.96429C3.78556 6.57194 3.82672 6.12434 3.71299 5.72094L7.36402 3.57949C7.37875 3.59498 7.39379 3.61016 7.40912 3.62504ZM8.94121 4.00523L13.7099 12.3957C13.6032 12.4991 13.5091 12.6195 13.4319 12.7559C13.3552 12.8915 13.3 13.0339 13.2655 13.1788H3.73461C3.70002 13.034 3.64486 12.8916 3.56806 12.7559C3.49056 12.6204 3.3967 12.5006 3.29051 12.3977L8.0601 4.00562C8.19969 4.04656 8.34728 4.06848 8.49999 4.06848C8.65319 4.06848 8.80123 4.04642 8.94121 4.00523ZM9.6678 16.1752L13.2961 14.047C13.2853 14.0123 13.2755 13.9772 13.267 13.9418H3.73259C3.72754 13.9626 3.72208 13.9833 3.71621 14.0039L7.36235 16.1425C7.64944 15.8398 8.05276 15.6517 8.49999 15.6517C8.96312 15.6517 9.37916 15.8534 9.6678 16.1752Z" fill="#E535AB"/>
</svg>
