<svg width="35" height="35" viewBox="0 0 35 35" fill="none" xmlns="http://www.w3.org/2000/svg">
<rect width="35" height="35" rx="8" fill="#101010"/>
<path fill-rule="evenodd" clip-rule="evenodd" d="M19.0139 11.0479L22.6572 13.1848C22.7598 13.0744 22.8797 12.977 23.0156 12.8968C23.7712 12.4555 24.735 12.7175 25.1739 13.4851C25.6083 14.2527 25.3504 15.2318 24.5947 15.6777C24.4598 15.7564 24.3181 15.8128 24.1739 15.8479V20.1235C24.3166 20.1586 24.4567 20.2146 24.5902 20.2926C25.3504 20.7384 25.6083 21.7175 25.1694 22.4851C24.735 23.2527 23.7667 23.5147 23.0111 23.0735C22.8606 22.9856 22.7299 22.8763 22.6205 22.7514L18.9993 24.8753C19.0511 25.0342 19.0791 25.2042 19.0791 25.3809C19.0791 26.2635 18.3733 26.9851 17.5 26.9851C16.6267 26.9851 15.9209 26.268 15.9209 25.3809C15.9209 25.2232 15.9432 25.0709 15.9848 24.927L12.3423 22.7907C12.2408 22.8989 12.1227 22.9945 11.9889 23.0735C11.2287 23.5147 10.265 23.2527 9.83061 22.4851C9.39624 21.7175 9.65415 20.7384 10.4098 20.2926C10.5434 20.2145 10.6835 20.1585 10.826 20.1234V15.8479C10.6818 15.8128 10.5402 15.7564 10.4053 15.6777C9.64963 15.2364 9.39172 14.2527 9.82609 13.4851C10.2605 12.7175 11.2287 12.4555 11.9844 12.8968C12.1196 12.9765 12.2388 13.0734 12.3411 13.183L15.9854 11.0455C15.9434 10.9009 15.9209 10.7478 15.9209 10.5893C15.9209 9.70217 16.6267 8.98511 17.5 8.98511C18.3733 8.98511 19.0791 9.70217 19.0791 10.5893C19.0791 10.7487 19.0563 10.9026 19.0139 11.0479ZM18.6343 11.7063L22.2863 13.8483C22.1734 14.2511 22.2149 14.6977 22.4364 15.0893C22.6588 15.4822 23.0209 15.7426 23.4228 15.8441V20.125C23.4023 20.1301 23.382 20.1356 23.3617 20.1416L18.5919 11.7491C18.6063 11.7351 18.6204 11.7208 18.6343 11.7063ZM16.4091 11.75L11.6394 20.1424C11.6187 20.1363 11.598 20.1306 11.5771 20.1254V15.8441C11.9791 15.7426 12.3412 15.4822 12.5635 15.0893C12.7856 14.6969 12.8267 14.2493 12.713 13.8459L16.364 11.7045C16.3787 11.72 16.3938 11.7352 16.4091 11.75ZM17.9412 12.1302L22.7099 20.5207C22.6032 20.6241 22.5091 20.7445 22.4319 20.8809C22.3552 21.0165 22.3 21.1589 22.2655 21.3038H12.7346C12.7 21.159 12.6449 21.0166 12.5681 20.8809C12.4906 20.7454 12.3967 20.6256 12.2905 20.5227L17.0601 12.1306C17.1997 12.1716 17.3473 12.1935 17.5 12.1935C17.6532 12.1935 17.8012 12.1714 17.9412 12.1302ZM18.6678 24.3002L22.2961 22.172C22.2853 22.1373 22.2755 22.1022 22.267 22.0668H12.7326C12.7275 22.0876 12.7221 22.1083 12.7162 22.1289L16.3624 24.2675C16.6494 23.9648 17.0528 23.7767 17.5 23.7767C17.9631 23.7767 18.3792 23.9784 18.6678 24.3002Z" fill="#E535AB"/>
</svg>
