<svg width="431" height="1080" viewBox="0 0 431 1080" fill="none" xmlns="http://www.w3.org/2000/svg">
<g clip-path="url(#clip0_1395_31538)">
<path d="M490.449 -70.6684C471.895 -83.6288 447.339 -83.6288 428.785 -70.6684L4.91128 225.784C1.7735 227.967 0 231.514 0 235.334V338.335C0 347.748 10.5048 353.205 18.281 347.884L428.785 61.1185C447.339 48.1581 471.895 48.1581 490.449 61.1185L901.226 347.884C908.865 353.205 919.507 347.748 919.507 338.335V235.334C919.507 231.514 917.597 227.967 914.595 225.784L490.449 -70.6684Z" fill="url(#paint0_linear_1395_31538)"/>
<path d="M428.921 178.171L4.91128 474.624C1.7735 476.806 0 480.354 0 484.173V587.175C0 596.588 10.5048 602.045 18.281 596.724L428.785 309.822C447.339 296.861 471.895 296.861 490.449 309.822L901.226 596.588C908.865 601.909 919.507 596.452 919.507 587.038V484.037C919.507 480.217 917.597 476.67 914.595 474.487L490.449 178.171C472.032 165.211 447.339 165.211 428.921 178.171Z" fill="url(#paint1_linear_1395_31538)"/>
<path d="M490.449 427.011C471.895 414.051 447.339 414.051 428.785 427.011L4.91128 723.464C1.7735 725.646 0 729.193 0 733.013V836.014C0 845.428 10.5048 850.885 18.281 845.564L428.785 558.798C447.339 545.838 471.895 545.838 490.449 558.798L639.835 663.164C646.383 667.802 646.383 677.625 639.835 682.127L493.723 784.309C475.169 797.27 450.613 797.27 432.059 784.309L357.434 738.197C353.478 735.742 348.567 735.878 344.747 738.607L270.804 790.312C264.119 794.95 264.256 804.909 271.077 809.548L431.922 915.96C450.476 928.92 475.033 928.92 493.587 915.96L740.789 742.836C744.746 740.107 750.066 740.107 754.023 742.836L811.594 782.945C818.143 787.583 818.143 797.406 811.594 801.908L490.585 1026.33C472.032 1039.29 447.475 1039.29 428.921 1026.33L185.266 856.069C181.309 853.34 175.989 853.34 172.032 856.069L98.2262 907.638C91.6778 912.276 91.6778 921.962 98.2262 926.601L428.921 1157.84C447.475 1170.8 472.032 1170.8 490.585 1157.84L914.459 861.39C917.597 859.207 919.37 855.66 919.37 851.84V732.604C919.37 728.784 917.46 725.237 914.459 723.054L490.449 427.011Z" fill="url(#paint2_linear_1395_31538)"/>
</g>
<defs>
<linearGradient id="paint0_linear_1395_31538" x1="984.069" y1="9.68167" x2="-410.921" y2="582.817" gradientUnits="userSpaceOnUse">
<stop offset="0.1948" stop-color="#101010"/>
<stop offset="0.2555" stop-color="#111115"/>
<stop offset="0.3275" stop-color="#131623"/>
<stop offset="0.4051" stop-color="#171D3B"/>
<stop offset="0.4867" stop-color="#1D275D"/>
<stop offset="0.5716" stop-color="#253388"/>
<stop offset="0.6578" stop-color="#2D42BB"/>
<stop offset="0.7308" stop-color="#3651ED"/>
</linearGradient>
<linearGradient id="paint1_linear_1395_31538" x1="1071.54" y1="222.587" x2="-323.448" y2="795.723" gradientUnits="userSpaceOnUse">
<stop offset="0.1948" stop-color="#101010"/>
<stop offset="0.2555" stop-color="#111115"/>
<stop offset="0.3275" stop-color="#131623"/>
<stop offset="0.4051" stop-color="#171D3B"/>
<stop offset="0.4867" stop-color="#1D275D"/>
<stop offset="0.5716" stop-color="#253388"/>
<stop offset="0.6578" stop-color="#2D42BB"/>
<stop offset="0.7308" stop-color="#3651ED"/>
</linearGradient>
<linearGradient id="paint2_linear_1395_31538" x1="1183.51" y1="495.12" x2="-211.477" y2="1068.26" gradientUnits="userSpaceOnUse">
<stop offset="0.1948" stop-color="#101010"/>
<stop offset="0.2555" stop-color="#111115"/>
<stop offset="0.3275" stop-color="#131623"/>
<stop offset="0.4051" stop-color="#171D3B"/>
<stop offset="0.4867" stop-color="#1D275D"/>
<stop offset="0.5716" stop-color="#253388"/>
<stop offset="0.6578" stop-color="#2D42BB"/>
<stop offset="0.7308" stop-color="#3651ED"/>
</linearGradient>
<clipPath id="clip0_1395_31538">
<rect width="431" height="1080" fill="white"/>
</clipPath>
</defs>
</svg>
