<svg width="305" height="64" viewBox="0 0 305 64" fill="none" xmlns="http://www.w3.org/2000/svg">
<path d="M72.6 17C69.3 17 66.8 18.3 66.8 22C66.8 25.7 70.1 26.9 72.9 28.2C77.9 30.3 82.3 32.2 82.2 37.8C82.2 43.7 78.8 46.4 72.5 46.4C66.7 46.4 62.4 43.8 62.4 36.1V35.9L66 36.1C66.1 41.4 68.8 43.2 72.7 43.2C76.6 43.2 78.9 41.6 78.8 37.6C78.6 29.8 63.4 32 63.4 22C63.4 15.8 67.7 14 72.7 14C78.1 14 82 16.3 82.1 23.2V23.5L78.7 23.3C78.7 18.3 76.4 17 72.6 17Z" fill="white"/>
<path d="M90.6 23.5999V14.3999H93.9V23.5999H104V26.3999H93.8V38.5999C93.8 40.9999 95.6 42.6999 98.6 42.9999C100.4 43.1999 102.6 43.0999 104 43.0999V45.7999C102.4 45.7999 100 45.8999 98 45.6999C93.4 45.2999 90.5 42.7999 90.5 38.7999V26.3999H86V23.5999H90.6Z" fill="white"/>
<path d="M124.1 23.6001H127.8V26.4001H124.1C120 26.4001 116.6 29.3001 116.6 33.5001V43.2001H121.2V45.9001H108.9V43.2001H113.3V26.4001H108.9V23.6001H115.9V27.8001C117.6 25.1001 120.6 23.6001 124.1 23.6001Z" fill="white"/>
<path d="M151.3 45.8001H148.4L148.3 41.6001C147 44.6001 144.2 46.3001 141.2 46.3001C135.7 46.4001 132.6 42.3001 132.6 37.1001V23.6001H135.9V37.0001C135.9 41.1001 138.7 43.2001 142 43.2001C145.3 43.2001 148.1 41.0001 148.1 37.0001V23.6001H151.4V45.8001H151.3Z" fill="white"/>
<path d="M168.9 46.3001C162.1 46.3001 157.3 41.8001 157.3 34.8001C157.3 27.6001 162.1 23.1001 168.9 23.1001C174.2 23.1001 178.3 25.6001 179.6 30.2001L176.4 30.7001C175.2 27.9001 172.6 26.1001 169 26.1001C164 26.1001 160.6 29.7001 160.6 34.8001C160.6 39.8001 164.1 43.3001 169 43.3001C172.5 43.3001 175.1 41.6001 176.4 38.9001L179.6 39.4001C178.3 43.8001 174.1 46.3001 168.9 46.3001Z" fill="white"/>
<path d="M187.3 23.5999V14.3999H190.6V23.5999H200.8V26.3999H190.6V38.5999C190.6 40.9999 192.4 42.6999 195.4 42.9999C197.2 43.1999 199.4 43.0999 200.8 43.0999V45.7999C199.2 45.7999 196.8 45.8999 194.8 45.6999C190.2 45.2999 187.3 42.7999 187.3 38.7999V26.3999H182.7V23.5999H187.3Z" fill="white"/>
<path d="M224.9 45.8001H222L221.9 41.6001C220.6 44.6001 217.8 46.3001 214.8 46.3001C209.3 46.4001 206.2 42.3001 206.2 37.1001V23.6001H209.5V37.0001C209.5 41.1001 212.3 43.2001 215.6 43.2001C218.9 43.2001 221.7 41.0001 221.7 37.0001V23.6001H225V45.8001H224.9Z" fill="white"/>
<path d="M247.2 23.6001H250.9V26.4001H247.2C243.1 26.4001 239.7 29.3001 239.7 33.5001V43.2001H244.3V45.9001H232V43.2001H236.4V26.4001H232V23.6001H239V27.8001C240.7 25.1001 243.7 23.6001 247.2 23.6001Z" fill="white"/>
<path d="M265.4 23.1001C273.2 23.1001 277.6 27.9001 277.1 35.8001H257.1C257.2 37.7001 257.7 39.3001 258.9 40.7001C260.6 42.6001 262.7 43.4001 265.5 43.4001C268.7 43.5001 271.2 42.2001 272.8 40.3001L275.1 42.1001C272.7 45.2001 269.6 46.4001 265.4 46.4001C258 46.4001 253.6 41.9001 253.6 34.8001C253.8 27.5001 258.3 23.1001 265.4 23.1001ZM271.8 28.5001C270.1 26.7001 268.1 26.0001 265.5 26.0001C262.8 26.0001 260.5 26.8001 259 28.7001C257.9 29.9001 257.4 31.4001 257.2 33.2001H273.7C273.6 31.2001 273 29.7001 271.8 28.5001Z" fill="white"/>
<path d="M289.5 43.2999C292.5 43.2999 293.8 41.7999 293.8 40C293.8 37.7 291.7 36.8 289.2 35.9C284.7 34.2 282.3 32.5 282.3 29.1C282.3 25.7 285.4 23.2 289.6 23.2C294.2 23.2 296.9 26 297 30.1H293.8C293.8 27.6 292.2 26.2 289.6 26.2C287.3 26.2 285.5 27.3999 285.5 29.2999C285.5 31.5999 287.5 32.4 290.2 33.2999C294.2 34.6999 297 36.4 297 40.2999C297 43.5999 294.2 46.5 289.3 46.5C285 46.5 281.9 43.4999 281.6 39.5999H284.8C285.2 41.6999 286.9 43.2999 289.5 43.2999Z" fill="white"/>
<path d="M300.3 43.6002H301V45.5002H301.5V43.6002H302.2V43.2002H300.3V43.6002Z" fill="white"/>
<path d="M303.6 44.8002L303.2 43.2002H302.5V45.5002H302.9V43.7002L303.4 45.5002H303.8L304.3 43.7002V45.5002H304.7V43.2002H304L303.6 44.8002Z" fill="white"/>
<path d="M24.9 0.500098C24 -0.199902 22.7 -0.199902 21.8 0.500098L0.3 15.5001C0.1 15.7001 0 15.8001 0 16.0001V21.2001C0 21.7001 0.5 22.0001 0.9 21.7001L21.8 7.2001C22.7 6.5001 24 6.5001 24.9 7.2001L45.8 21.8001C46.2 22.1001 46.7 21.8001 46.7 21.3001V16.0001C46.7 15.8001 46.6 15.6001 46.4 15.5001L24.9 0.500098Z" fill="#C8FB39"/>
<path d="M21.8 13.1001L0.3 28.2001C0.1 28.3001 0 28.5001 0 28.7001V33.9001C0 34.4001 0.5 34.7001 0.9 34.4001L21.7 19.8001C22.6 19.1001 23.9 19.1001 24.8 19.8001L45.7 34.4001C46.1 34.7001 46.6 34.4001 46.6 33.9001V28.7001C46.6 28.5001 46.5 28.3001 46.3 28.2001L24.9 13.1001C24 12.5001 22.7 12.5001 21.8 13.1001Z" fill="#C8FB39"/>
<path d="M24.9 25.8001C24 25.1001 22.7 25.1001 21.8 25.8001L0.3 40.8001C0.1 40.9001 0 41.1001 0 41.3001V46.5001C0 47.0001 0.5 47.3001 0.9 47.0001L21.7 32.4001C22.6 31.7001 23.9 31.7001 24.8 32.4001L32.4 37.7001C32.7 37.9001 32.7 38.4001 32.4 38.7001L25 43.9001C24.1 44.6001 22.8 44.6001 21.9 43.9001L18.1 41.6001C17.9 41.5001 17.6 41.5001 17.5 41.6001L13.7 44.2001C13.4 44.4001 13.4 44.9001 13.7 45.2001L21.9 50.6001C22.8 51.3001 24.1 51.3001 25 50.6001L37.6 41.8001C37.8 41.7001 38.1 41.7001 38.3 41.8001L41.2 43.8001C41.5 44.0001 41.5 44.5001 41.2 44.8001L24.9 56.2001C24 56.9001 22.7 56.9001 21.8 56.2001L9.4 47.6001C9.2 47.5001 8.9 47.5001 8.7 47.6001L5 50.2001C4.7 50.4001 4.7 50.9001 5 51.2001L21.8 62.9002C22.7 63.6002 24 63.6002 24.9 62.9002L46.4 47.8001C46.6 47.7001 46.7 47.5001 46.7 47.3001V41.2001C46.7 41.0001 46.6 40.8001 46.4 40.7001L24.9 25.8001Z" fill="#C8FB39"/>
</svg>
