<svg width="218" height="45" viewBox="0 0 218 45" fill="none" xmlns="http://www.w3.org/2000/svg">
<g clip-path="url(#clip0_7258_78619)">
<path d="M52.1631 19.9941C50.1217 19.0344 47.8117 18.128 47.8117 15.5687C47.8117 13.0095 49.6382 12.0498 52.002 12.0498C54.688 12.0498 56.2996 13.0095 56.3534 16.4751L58.8245 16.6351V16.4218C58.7708 11.5699 55.9773 9.91707 52.1094 9.91707C48.5101 9.91707 45.448 11.1967 45.448 15.622C45.448 22.7133 56.3534 21.1671 56.4608 26.6588C56.5145 29.5379 54.9029 30.6576 52.1094 30.6576C49.3159 30.6043 47.4357 29.378 47.3282 25.5924L44.8033 25.4325V25.5924C44.8571 31.0308 47.9192 32.8969 52.0557 32.8969C56.5683 32.8969 58.9857 31.0308 58.9857 26.8187C58.8783 22.8732 55.7624 21.487 52.1631 19.9941Z" fill="black"/>
<path d="M67.1513 10.2903H64.7876V16.795H61.5106V18.7678H64.7876V27.5652C64.7876 30.4443 66.8827 32.1505 70.1597 32.4704C71.6102 32.6303 73.3293 32.577 74.4574 32.5237V30.6576C73.4367 30.6576 71.8788 30.7109 70.5895 30.5509C68.4406 30.2844 67.1513 29.1114 67.1513 27.4052V18.7678H74.4574V16.795H67.1513V10.2903Z" fill="black"/>
<path d="M82.999 19.7808L82.9453 16.795H77.9492V18.7678H81.065V30.6576H77.9492V32.5237H86.7595V30.6043H83.4288V23.7263C83.4288 20.7938 85.8999 18.7145 88.8009 18.7145H91.4332V16.7417H88.8009C86.276 16.7417 84.1809 17.8614 82.999 19.7808Z" fill="black"/>
<path d="M105.884 26.3389C105.884 29.218 103.843 30.7642 101.533 30.7642C99.169 30.7642 97.1813 29.218 97.1813 26.3389V16.795H94.8176V26.3389C94.8176 30.0711 97.0739 32.9502 100.996 32.8969C103.198 32.8436 105.186 31.7239 106.099 29.5379L106.153 32.5237H108.248V16.795H105.884V26.3389Z" fill="black"/>
<path d="M120.872 18.5545C123.397 18.5545 125.277 19.7808 126.191 21.8069L128.501 21.4337C127.534 18.1813 124.633 16.3685 120.872 16.3685C115.984 16.3685 112.546 19.5675 112.546 24.686C112.546 29.6446 115.984 32.8436 120.872 32.8436C124.633 32.8436 127.587 31.0841 128.501 27.9384L126.244 27.5652C125.277 29.4846 123.397 30.7109 120.926 30.7109C117.434 30.7109 114.909 28.205 114.909 24.686C114.909 21.0604 117.327 18.5545 120.872 18.5545Z" fill="black"/>
<path d="M136.398 10.2903H134.034V16.795H130.757V18.7678H134.034V27.5652C134.034 30.4443 136.129 32.1505 139.406 32.4704C140.857 32.6303 142.576 32.577 143.704 32.5237V30.6576C142.683 30.6576 141.125 30.7109 139.836 30.5509C137.687 30.2844 136.398 29.1114 136.398 27.4052V18.7678H143.704V16.795H136.398V10.2903Z" fill="black"/>
<path d="M158.585 26.3389C158.585 29.218 156.543 30.7642 154.233 30.7642C151.869 30.7642 149.882 29.218 149.882 26.3389V16.795H147.518V26.3389C147.518 30.0711 149.774 32.9502 153.696 32.8969C155.898 32.8436 157.886 31.7239 158.799 29.5379L158.853 32.5237H160.948V16.795H158.585V26.3389Z" fill="black"/>
<path d="M171.048 19.7808L170.994 16.795H165.998V18.7678H169.114V30.6576H165.998V32.5237H174.808V30.6043H171.478V23.7263C171.478 20.7938 173.949 18.7145 176.85 18.7145H179.482V16.7417H176.85C174.379 16.7417 172.23 17.8614 171.048 19.7808Z" fill="black"/>
<path d="M189.904 16.4218C184.8 16.4218 181.523 19.5675 181.523 24.6327C181.523 29.5912 184.639 32.8436 189.958 32.8436C192.912 32.8436 195.169 31.9905 196.888 29.8045L195.222 28.5782C194.04 29.9645 192.268 30.8709 190.011 30.8175C187.97 30.7642 186.466 30.2844 185.284 28.8981C184.478 27.9384 184.048 26.8187 183.995 25.4325H198.284C198.607 19.8341 195.491 16.4218 189.904 16.4218ZM184.048 23.513C184.156 22.2334 184.532 21.2204 185.284 20.3673C186.412 19.0344 188.024 18.5012 189.958 18.5012C191.838 18.5012 193.288 19.0344 194.47 20.314C195.33 21.1671 195.706 22.1801 195.867 23.5664H184.048V23.513Z" fill="black"/>
<path d="M207.686 23.5664C205.752 22.8732 204.301 22.3401 204.301 20.6872C204.301 19.3543 205.537 18.4479 207.202 18.4479C209.029 18.5012 210.157 19.4609 210.157 21.2204H212.413C212.359 18.3412 210.425 16.3152 207.148 16.3152C204.194 16.3152 201.991 18.128 201.937 20.5273C201.937 22.9799 203.656 24.1528 206.88 25.3792C208.706 26.0723 210.157 26.7121 210.157 28.3116C210.157 29.6446 209.19 30.6576 207.041 30.6576C205.161 30.6576 203.925 29.4846 203.71 27.8851H201.454C201.669 30.6576 203.871 32.7903 206.933 32.7903C210.425 32.7903 212.467 30.7642 212.467 28.4183C212.52 25.7524 210.586 24.5794 207.686 23.5664Z" fill="black"/>
<path d="M214.884 30.9242H215.368V32.3104H215.69V30.9242H216.173V30.6576H214.884V30.9242Z" fill="black"/>
<path d="M217.517 30.6576L217.194 31.7773L216.926 30.6576H216.388V32.3104H216.711V30.9775L217.033 32.3104H217.355L217.678 30.9775V32.3104H218V30.6576H217.517Z" fill="black"/>
<path d="M17.8354 0.37323C17.137 -0.106628 16.2775 -0.106628 15.5791 0.37323L0.161163 11.0367C0.0537211 11.1434 0 11.25 0 11.3566V15.0889C0 15.4088 0.376047 15.622 0.644653 15.4088L15.5791 5.11849C16.2775 4.63863 17.137 4.63863 17.8354 5.11849L32.7161 15.4621C32.9847 15.6754 33.3608 15.4621 33.3608 15.1422V11.41C33.3608 11.25 33.307 11.1434 33.1996 11.0901L17.8354 0.37323Z" fill="black"/>
<path d="M17.8354 9.33058C17.137 8.85072 16.2775 8.85072 15.5791 9.33058L0.161163 19.9941C0.0537211 20.1007 0 20.2074 0 20.3673V24.0995C0 24.4194 0.376047 24.6327 0.644653 24.4194L15.5791 14.0758C16.2775 13.596 17.137 13.596 17.8354 14.0758L32.7698 24.4194C33.0384 24.6327 33.4145 24.4194 33.4145 24.0995V20.3673C33.4145 20.2074 33.3608 20.1007 33.2533 20.0474L17.8354 9.33058Z" fill="black"/>
<path d="M17.8354 18.2879C17.137 17.8081 16.2775 17.8081 15.5791 18.2879L0.161163 28.9514C0.0537211 29.0581 0 29.218 0 29.3246V33.0569C0 33.3768 0.376047 33.59 0.644653 33.3768L15.5791 23.0332C16.2775 22.5533 17.137 22.5533 17.8354 23.0332L23.2612 26.8187C23.4761 26.9787 23.4761 27.3519 23.2612 27.5119L17.9428 31.1908C17.2445 31.6706 16.3849 31.6706 15.6865 31.1908L13.0005 29.5379C12.8393 29.4313 12.6782 29.4313 12.517 29.5379L9.83095 31.404C9.56235 31.564 9.61607 31.9372 9.83095 32.0972L15.6865 35.936C16.3849 36.4159 17.2445 36.4159 17.9428 35.936L26.9142 29.6979C27.0754 29.5912 27.2366 29.5912 27.3977 29.6979L29.4929 31.1374C29.7077 31.2974 29.7077 31.6706 29.4929 31.8306L17.8354 39.9348C17.137 40.4147 16.2775 40.4147 15.5791 39.9348L6.71513 33.75C6.55397 33.6434 6.3928 33.6434 6.23164 33.75L3.54559 35.6161C3.3307 35.7761 3.3307 36.1493 3.54559 36.3092L15.5791 44.6801C16.2775 45.16 17.137 45.16 17.8354 44.6801L33.2533 34.0166C33.3608 33.9633 33.4145 33.8033 33.4145 33.6967V29.3246C33.4145 29.1647 33.3608 29.0581 33.2533 29.0047L17.8354 18.2879Z" fill="black"/>
</g>
<defs>
<clipPath id="clip0_7258_78619">
<rect width="218" height="45" fill="white"/>
</clipPath>
</defs>
</svg>
