<svg width="25" height="25" viewBox="0 0 25 25" fill="none" xmlns="http://www.w3.org/2000/svg">
<path fill-rule="evenodd" clip-rule="evenodd" d="M15.3498 5.08353C14.9765 4.72017 14.4761 4.51686 13.9551 4.51686C13.4341 4.51686 12.9337 4.72017 12.5603 5.08353L5.12215 12.378C4.99768 12.499 4.83094 12.5666 4.65736 12.5666C4.48378 12.5666 4.31704 12.499 4.19257 12.378C4.13163 12.3187 4.08319 12.2478 4.05012 12.1695C4.01704 12.0912 4 12.0071 4 11.9221C4 11.8371 4.01704 11.7529 4.05012 11.6746C4.08319 11.5963 4.13163 11.5254 4.19257 11.4662L11.6307 4.17172C12.2529 3.56622 13.0869 3.22742 13.9551 3.22742C14.8233 3.22742 15.6572 3.56622 16.2794 4.17172C16.6394 4.52185 16.9114 4.95224 17.0731 5.42769C17.2348 5.90314 17.2817 6.41012 17.2098 6.90714C17.7134 6.83551 18.2267 6.88048 18.7102 7.03856C19.1937 7.19665 19.6345 7.46363 19.9985 7.81895L20.0371 7.85758C20.3418 8.15391 20.584 8.50831 20.7494 8.89984C20.9148 9.29136 21 9.71208 21 10.1371C21 10.5621 20.9148 10.9828 20.7494 11.3744C20.584 11.7659 20.3418 12.1203 20.0371 12.4166L13.3099 19.0133C13.2896 19.033 13.2734 19.0566 13.2624 19.0827C13.2514 19.1088 13.2457 19.1368 13.2457 19.1651C13.2457 19.1935 13.2514 19.2215 13.2624 19.2476C13.2734 19.2736 13.2896 19.2972 13.3099 19.317L14.6915 20.6723C14.7524 20.7316 14.8009 20.8025 14.8339 20.8808C14.867 20.9591 14.8841 21.0432 14.8841 21.1282C14.8841 21.2132 14.867 21.2974 14.8339 21.3757C14.8009 21.454 14.7524 21.5249 14.6915 21.5841C14.567 21.7051 14.4003 21.7728 14.2267 21.7728C14.0531 21.7728 13.8864 21.7051 13.7619 21.5841L12.3803 20.2296C12.238 20.0913 12.1249 19.9259 12.0476 19.7431C11.9704 19.5603 11.9306 19.3639 11.9306 19.1655C11.9306 18.9671 11.9704 18.7707 12.0476 18.5879C12.1249 18.4052 12.238 18.2398 12.3803 18.1015L19.1076 11.504C19.2903 11.3262 19.4355 11.1135 19.5347 10.8786C19.6338 10.6437 19.6849 10.3913 19.6849 10.1363C19.6849 9.88134 19.6338 9.62894 19.5347 9.39403C19.4355 9.15912 19.2903 8.94647 19.1076 8.76862L19.0689 8.73075C18.696 8.36778 18.1962 8.16448 17.6758 8.16405C17.1554 8.16362 16.6553 8.36608 16.2817 8.72844L10.7398 14.1637L10.7383 14.1653L10.6625 14.2402C10.538 14.3614 10.3711 14.4293 10.1974 14.4293C10.0236 14.4293 9.85669 14.3614 9.73218 14.2402C9.67124 14.181 9.6228 14.1101 9.58973 14.0318C9.55665 13.9535 9.53961 13.8693 9.53961 13.7843C9.53961 13.6993 9.55665 13.6152 9.58973 13.5369C9.6228 13.4586 9.67124 13.3877 9.73218 13.3284L15.3522 7.81663C15.5344 7.63866 15.6791 7.42603 15.7779 7.19125C15.8766 6.95647 15.9274 6.7043 15.9272 6.44959C15.927 6.19489 15.8758 5.9428 15.7766 5.70819C15.6775 5.47358 15.5324 5.26119 15.3498 5.08353Z" fill="black"/>
<path fill-rule="evenodd" clip-rule="evenodd" d="M14.4202 6.90706C14.4812 6.8478 14.5296 6.77692 14.5627 6.69861C14.5958 6.6203 14.6128 6.53616 14.6128 6.45116C14.6128 6.36615 14.5958 6.28201 14.5627 6.2037C14.5296 6.1254 14.4812 6.05452 14.4202 5.99525C14.2957 5.87404 14.1288 5.80621 13.9551 5.80621C13.7813 5.80621 13.6144 5.87404 13.4899 5.99525L7.98893 11.3904C7.68423 11.6867 7.44203 12.0411 7.27665 12.4326C7.11127 12.8241 7.02606 13.2449 7.02606 13.6699C7.02606 14.0949 7.11127 14.5156 7.27665 14.9071C7.44203 15.2987 7.68423 15.6531 7.98893 15.9494C8.61122 16.5547 9.44512 16.8934 10.3133 16.8934C11.1814 16.8934 12.0153 16.5547 12.6376 15.9494L18.1393 10.5543C18.2003 10.495 18.2487 10.4241 18.2818 10.3458C18.3149 10.2675 18.3319 10.1834 18.3319 10.0984C18.3319 10.0134 18.3149 9.92923 18.2818 9.85093C18.2487 9.77262 18.2003 9.70174 18.1393 9.64248C18.0148 9.52126 17.8479 9.45344 17.6742 9.45344C17.5004 9.45344 17.3335 9.52126 17.209 9.64248L11.708 15.0376C11.3347 15.4009 10.8342 15.6043 10.3133 15.6043C9.79228 15.6043 9.29186 15.4009 8.9185 15.0376C8.73578 14.8597 8.59055 14.6471 8.49138 14.4122C8.39221 14.1773 8.34112 13.9249 8.34112 13.6699C8.34112 13.4149 8.39221 13.1625 8.49138 12.9276C8.59055 12.6927 8.73578 12.48 8.9185 12.3022L14.4202 6.90706Z" fill="black"/>
</svg>
