<svg width="20" height="21" viewBox="0 0 20 21" fill="none" xmlns="http://www.w3.org/2000/svg">
<g clip-path="url(#clip0_7262_24556)">
<path fill-rule="evenodd" clip-rule="evenodd" d="M5.42854 0.274536C5.90193 0.274536 6.28568 0.658292 6.28568 1.13168V2.56025H9.14283V1.13168C9.14283 0.658292 9.52658 0.274536 9.99997 0.274536C10.4734 0.274536 10.8571 0.658292 10.8571 1.13168V2.56025H13.7143V1.13168C13.7143 0.658292 14.098 0.274536 14.5714 0.274536C15.0448 0.274536 15.4285 0.658292 15.4285 1.13168V2.56025H15.7143C16.8188 2.56025 17.7143 3.45568 17.7143 4.56025V4.84596H19.1428C19.6162 4.84596 20 5.22972 20 5.70311C20 6.17649 19.6162 6.56025 19.1428 6.56025H17.7143V9.41739H19.1428C19.6162 9.41739 20 9.80115 20 10.2745C20 10.7479 19.6162 11.1317 19.1428 11.1317H17.7143V13.9888H19.1428C19.6162 13.9888 20 14.3726 20 14.846C20 15.3194 19.6162 15.7031 19.1428 15.7031H17.7143V15.9888C17.7143 17.0934 16.8188 17.9888 15.7143 17.9888H15.4285V19.4174C15.4285 19.8908 15.0448 20.2745 14.5714 20.2745C14.098 20.2745 13.7143 19.8908 13.7143 19.4174V17.9888H10.8571V19.4174C10.8571 19.8908 10.4734 20.2745 9.99997 20.2745C9.52658 20.2745 9.14283 19.8908 9.14283 19.4174V17.9888H6.28568V19.4174C6.28568 19.8908 5.90193 20.2745 5.42854 20.2745C4.95515 20.2745 4.5714 19.8908 4.5714 19.4174V17.9888H4.28568C3.18111 17.9888 2.28568 17.0934 2.28568 15.9888V15.7031H0.857112C0.383725 15.7031 -3.05176e-05 15.3194 -3.05176e-05 14.846C-3.05176e-05 14.3726 0.383725 13.9888 0.857112 13.9888H2.28568V11.1317H0.857112C0.383725 11.1317 -3.05176e-05 10.7479 -3.05176e-05 10.2745C-3.05176e-05 9.80115 0.383725 9.41739 0.857112 9.41739H2.28568V6.56025H0.857112C0.383725 6.56025 -3.05176e-05 6.17649 -3.05176e-05 5.70311C-3.05176e-05 5.22972 0.383725 4.84596 0.857112 4.84596H2.28568V4.56025C2.28568 3.45568 3.18111 2.56025 4.28568 2.56025H4.5714V1.13168C4.5714 0.658292 4.95515 0.274536 5.42854 0.274536ZM4.28568 4.27454C4.12789 4.27454 3.99997 4.40246 3.99997 4.56025V15.9888C3.99997 16.1466 4.12789 16.2745 4.28568 16.2745H15.7143C15.8721 16.2745 16 16.1466 16 15.9888V4.56025C16 4.40246 15.8721 4.27454 15.7143 4.27454H4.28568Z" fill="white" fill-opacity="1"/>
</g>
<defs>
<clipPath id="clip0_7262_24556">
<rect y="0.274536" width="20" height="20" fill="white"/>
</clipPath>
</defs>
</svg>
