<svg width="20" height="21" viewBox="0 0 20 21" fill="none" xmlns="http://www.w3.org/2000/svg">
<g clip-path="url(#clip0_7260_24790)">
<path fill-rule="evenodd" clip-rule="evenodd" d="M2 0.274414C0.895431 0.274414 0 1.16984 0 2.27441V9.13156C0 10.2361 0.895431 11.1316 2 11.1316H6.57143C7.676 11.1316 8.57143 10.2361 8.57143 9.13156V2.27441C8.57143 1.16984 7.676 0.274414 6.57143 0.274414H2ZM1.71429 2.27441C1.71429 2.11662 1.8422 1.9887 2 1.9887H6.57143C6.72922 1.9887 6.85714 2.11662 6.85714 2.27441V9.13156C6.85714 9.28935 6.72922 9.41727 6.57143 9.41727H2C1.8422 9.41727 1.71429 9.28935 1.71429 9.13156V2.27441ZM2 13.9887C0.895431 13.9887 0 14.8841 0 15.9887V18.2744C0 19.379 0.895431 20.2744 2 20.2744H6.57143C7.676 20.2744 8.57143 19.379 8.57143 18.2744V15.9887C8.57143 14.8841 7.676 13.9887 6.57143 13.9887H2ZM1.71429 15.9887C1.71429 15.8309 1.8422 15.703 2 15.703H6.57143C6.72922 15.703 6.85714 15.8309 6.85714 15.9887V18.2744C6.85714 18.4322 6.72922 18.5601 6.57143 18.5601H2C1.8422 18.5601 1.71429 18.4322 1.71429 18.2744V15.9887ZM11.4286 11.4173C11.4286 10.3127 12.324 9.41727 13.4286 9.41727H18C19.1046 9.41727 20 10.3127 20 11.4173V18.2744C20 19.379 19.1046 20.2744 18 20.2744H13.4286C12.324 20.2744 11.4286 19.379 11.4286 18.2744V11.4173ZM13.4286 11.1316C13.2708 11.1316 13.1429 11.2595 13.1429 11.4173V18.2744C13.1429 18.4322 13.2708 18.5601 13.4286 18.5601H18C18.1578 18.5601 18.2857 18.4322 18.2857 18.2744V11.4173C18.2857 11.2595 18.1578 11.1316 18 11.1316H13.4286ZM13.4286 0.274414C12.324 0.274414 11.4286 1.16984 11.4286 2.27441V4.56013C11.4286 5.6647 12.324 6.56013 13.4286 6.56013H18C19.1046 6.56013 20 5.6647 20 4.56013V2.27441C20 1.16984 19.1046 0.274414 18 0.274414H13.4286ZM13.1429 2.27441C13.1429 2.11662 13.2708 1.9887 13.4286 1.9887H18C18.1578 1.9887 18.2857 2.11662 18.2857 2.27441V4.56013C18.2857 4.71792 18.1578 4.84584 18 4.84584H13.4286C13.2708 4.84584 13.1429 4.71792 13.1429 4.56013V2.27441Z" fill="white" fill-opacity="0.8"/>
</g>
<defs>
<clipPath id="clip0_7260_24790">
<rect y="0.274414" width="20" height="20" fill="white"/>
</clipPath>
</defs>
</svg>
