<svg width="14" height="15" viewBox="0 0 14 15" fill="none" xmlns="http://www.w3.org/2000/svg">
<path fill-rule="evenodd" clip-rule="evenodd" d="M1.4 0.5C0.626801 0.5 0 1.1268 0 1.9V6.7C0 7.4732 0.626802 8.1 1.4 8.1H4.6C5.3732 8.1 6 7.4732 6 6.7V1.9C6 1.1268 5.3732 0.5 4.6 0.5H1.4ZM1.2 1.9C1.2 1.78954 1.28954 1.7 1.4 1.7H4.6C4.71046 1.7 4.8 1.78954 4.8 1.9V6.7C4.8 6.81046 4.71046 6.9 4.6 6.9H1.4C1.28954 6.9 1.2 6.81046 1.2 6.7V1.9ZM1.4 10.1C0.626801 10.1 0 10.7268 0 11.5V13.1C0 13.8732 0.626802 14.5 1.4 14.5H4.6C5.3732 14.5 6 13.8732 6 13.1V11.5C6 10.7268 5.3732 10.1 4.6 10.1H1.4ZM1.2 11.5C1.2 11.3895 1.28954 11.3 1.4 11.3H4.6C4.71046 11.3 4.8 11.3895 4.8 11.5V13.1C4.8 13.2105 4.71046 13.3 4.6 13.3H1.4C1.28954 13.3 1.2 13.2105 1.2 13.1V11.5ZM8 8.3C8 7.5268 8.6268 6.9 9.4 6.9H12.6C13.3732 6.9 14 7.5268 14 8.3V13.1C14 13.8732 13.3732 14.5 12.6 14.5H9.4C8.6268 14.5 8 13.8732 8 13.1V8.3ZM9.4 8.1C9.28954 8.1 9.2 8.18954 9.2 8.3V13.1C9.2 13.2105 9.28954 13.3 9.4 13.3H12.6C12.7105 13.3 12.8 13.2105 12.8 13.1V8.3C12.8 8.18954 12.7105 8.1 12.6 8.1H9.4ZM9.4 0.5C8.6268 0.5 8 1.1268 8 1.9V3.5C8 4.2732 8.6268 4.9 9.4 4.9H12.6C13.3732 4.9 14 4.2732 14 3.5V1.9C14 1.1268 13.3732 0.5 12.6 0.5H9.4ZM9.2 1.9C9.2 1.78954 9.28954 1.7 9.4 1.7H12.6C12.7105 1.7 12.8 1.78954 12.8 1.9V3.5C12.8 3.61046 12.7105 3.7 12.6 3.7H9.4C9.28954 3.7 9.2 3.61046 9.2 3.5V1.9Z" fill="#3651ED"/>
</svg>
