<svg width="15" height="15" viewBox="0 0 15 15" fill="none" xmlns="http://www.w3.org/2000/svg">
<path fill-rule="evenodd" clip-rule="evenodd" d="M8.17742 1.17742C8.17742 0.803291 7.87413 0.5 7.5 0.5C7.12587 0.5 6.82258 0.803291 6.82258 1.17742V6.82258H1.17742C0.803291 6.82258 0.5 7.12587 0.5 7.5C0.5 7.87413 0.803291 8.17742 1.17742 8.17742H6.82258V13.8226C6.82258 14.1967 7.12587 14.5 7.5 14.5C7.87413 14.5 8.17742 14.1967 8.17742 13.8226V8.17742H13.8226C14.1967 8.17742 14.5 7.87413 14.5 7.5C14.5 7.12587 14.1967 6.82258 13.8226 6.82258H8.17742V1.17742Z" fill="white"/>
</svg>
