<svg width="18" height="19" viewBox="0 0 18 19" fill="none" xmlns="http://www.w3.org/2000/svg">
<path d="M4.75675 11.2251H4.73859H0.00708008C0.00788355 11.2482 0.00852634 11.2715 0.0098119 11.2947C0.0117402 11.3394 0.0149541 11.3839 0.017686 11.4285C0.0189715 11.4477 0.019775 11.4668 0.0212213 11.4857C0.0249173 11.5375 0.0294167 11.5889 0.0340769 11.6403C0.0352018 11.6521 0.0361659 11.6636 0.0372908 11.6749C0.0427544 11.7321 0.0490215 11.7893 0.0557707 11.846C0.0560921 11.8516 0.0567349 11.8571 0.0575384 11.8626C0.0649304 11.924 0.0728044 11.9853 0.0818034 12.0464C0.0818034 12.0471 0.0819641 12.048 0.0822855 12.0487C0.136761 12.4273 0.218555 12.8023 0.327667 13.171C0.328149 13.1726 0.328792 13.174 0.329113 13.1756C0.346147 13.2336 0.364145 13.2913 0.382625 13.3487C0.38375 13.3521 0.384875 13.3554 0.385839 13.3588C0.386803 13.3622 0.387928 13.3656 0.389053 13.3689C0.405926 13.4208 0.423602 13.4726 0.441279 13.5245C0.445939 13.5375 0.450278 13.5507 0.455099 13.5637C0.471007 13.6085 0.487238 13.6534 0.50395 13.6982C0.511663 13.7184 0.519377 13.7385 0.526929 13.7589C0.541392 13.7961 0.555694 13.8329 0.570317 13.87C0.581405 13.8978 0.592975 13.9256 0.604545 13.9534C0.616437 13.9823 0.628649 14.0111 0.640862 14.0402C0.655968 14.0755 0.671716 14.1107 0.687303 14.1459C0.696624 14.1669 0.706105 14.1878 0.715425 14.2087C0.734708 14.251 0.754634 14.2933 0.774561 14.3352C0.781149 14.3487 0.787416 14.3622 0.794166 14.3757C0.817466 14.4241 0.841249 14.4719 0.865354 14.5195C0.869371 14.5269 0.872906 14.5341 0.876602 14.5415C0.90376 14.5942 0.931399 14.6469 0.959842 14.6992C0.961128 14.7014 0.962414 14.7037 0.963538 14.7062C0.969484 14.7172 0.976073 14.7276 0.982018 14.7384L5.03845 12.2947L5.05339 12.2857C4.89334 11.9484 4.79371 11.5897 4.75675 11.2251Z" fill="#93D500"/>
<path d="M5.92406 13.4058L5.91265 13.4172L2.56714 16.7628C2.58433 16.7789 2.60137 16.7951 2.61904 16.8107C2.65022 16.839 2.68204 16.8671 2.71369 16.8948C2.73008 16.9094 2.74615 16.9239 2.76254 16.938C2.80047 16.9708 2.83871 17.0028 2.8768 17.0347C2.88724 17.0434 2.89737 17.0519 2.90765 17.0605C2.95056 17.096 2.99427 17.1308 3.03814 17.1655C3.04376 17.1699 3.04939 17.1744 3.05501 17.1789C3.10241 17.2162 3.1503 17.2525 3.19867 17.2891C3.20076 17.2904 3.20253 17.2917 3.20413 17.2931C3.40565 17.4437 3.61455 17.5848 3.83004 17.7163C3.83744 17.7209 3.84483 17.7253 3.85238 17.7299C3.89336 17.7545 3.93433 17.7788 3.97563 17.8027C4.00086 17.8172 4.02609 17.8315 4.05132 17.8458C4.0751 17.8596 4.09889 17.8728 4.12299 17.8861C4.16638 17.9099 4.21009 17.9335 4.2538 17.9567C4.25974 17.9599 4.26585 17.9631 4.27195 17.9663C4.3936 18.0299 4.51734 18.0891 4.64204 18.146L4.76079 17.8577L6.44343 13.7713L6.4497 13.7562C6.26586 13.6579 6.08974 13.5414 5.92406 13.4058Z" fill="#4D5A31"/>
<path d="M5.57561 13.0724C5.53945 13.0322 5.50506 12.9911 5.47132 12.9495C5.44143 12.9125 5.4125 12.8752 5.38454 12.8375C5.35256 12.7941 5.32123 12.7505 5.29166 12.706C5.26177 12.6613 5.23252 12.6164 5.20488 12.5706L1.14331 15.0173C1.20566 15.121 1.27074 15.2219 1.33711 15.3217C1.33936 15.325 1.34145 15.3287 1.3437 15.3321C1.3445 15.3334 1.3453 15.3345 1.34611 15.3358C1.34836 15.339 1.35029 15.3426 1.35254 15.3459C1.3527 15.3462 1.35302 15.3466 1.35318 15.3469C1.35848 15.3549 1.36395 15.3626 1.36941 15.3707C1.36973 15.3712 1.37005 15.3716 1.37037 15.3721C1.37053 15.3723 1.37069 15.3726 1.37086 15.3728C1.4414 15.4771 1.51387 15.5797 1.5886 15.6797C1.5902 15.6818 1.59197 15.684 1.59358 15.6861C1.59519 15.6882 1.59679 15.6903 1.5984 15.6924C1.63086 15.7354 1.66348 15.7784 1.69707 15.8209C1.70141 15.8266 1.70574 15.832 1.7104 15.8375C1.74479 15.8815 1.77982 15.9249 1.8155 15.968C1.82386 15.9781 1.83253 15.9884 1.84089 15.9987C1.87303 16.0371 1.90517 16.0753 1.93795 16.1132C1.95193 16.1295 1.96655 16.1457 1.98069 16.1618C2.00865 16.1936 2.03629 16.2252 2.0649 16.2566C2.08049 16.2738 2.09672 16.2911 2.11262 16.3083C2.11986 16.3162 2.12693 16.3239 2.13432 16.3318C2.15521 16.3543 2.17594 16.3768 2.19699 16.3991C2.20535 16.408 2.21418 16.4166 2.2227 16.4255C2.25966 16.464 2.29694 16.5026 2.33503 16.5405L5.68552 13.19C5.64712 13.1516 5.61112 13.1121 5.57561 13.0724Z" fill="#6BA43A"/>
<path d="M10.0168 13.4041C9.97999 13.4338 9.94271 13.4629 9.90479 13.4908L9.91314 13.5048L12.356 17.56C12.4692 17.486 12.581 17.4099 12.6903 17.3298C12.9267 17.1555 13.1555 16.9665 13.376 16.7631L10.0301 13.4172L10.0168 13.4041Z" fill="#4D5A31"/>
<path d="M12.001 17.5931L11.9181 17.4556L9.63786 13.6704C9.59174 13.6982 9.54449 13.7233 9.49741 13.7487C9.44984 13.7742 9.40196 13.7982 9.35343 13.8211C8.91537 14.0289 8.44116 14.135 7.9663 14.135C7.6552 14.135 7.34425 14.09 7.04359 14.0003C6.99233 13.9851 6.94235 13.965 6.89174 13.947C6.84112 13.9291 6.78985 13.9137 6.74004 13.8931L5.05852 17.9767L4.99264 18.1368L4.93623 18.2738L4.93591 18.2745C4.94025 18.2763 4.94475 18.2777 4.94909 18.2795C4.95375 18.2814 4.95825 18.2828 4.96291 18.2848H4.96307C4.96323 18.2848 4.96339 18.2849 4.96339 18.2849C4.96452 18.2854 4.96564 18.2857 4.96661 18.2862C5.0063 18.3025 5.04631 18.3164 5.08616 18.332C5.13614 18.3515 5.18612 18.3712 5.23625 18.3895C5.2618 18.3989 5.28719 18.4098 5.31274 18.4188H5.3129C5.83966 18.6049 6.38474 18.735 6.93898 18.808C6.96067 18.8106 6.98221 18.8136 7.0039 18.8167C7.02656 18.8192 7.04938 18.8215 7.07204 18.8241C7.11478 18.8289 7.15736 18.8339 7.20027 18.838C7.21088 18.8389 7.22148 18.8398 7.23209 18.8408C7.28463 18.8458 7.33718 18.8503 7.38941 18.854C7.40725 18.8552 7.42524 18.856 7.44292 18.8573C7.48904 18.8604 7.53484 18.8633 7.5808 18.8654C7.60892 18.867 7.63704 18.8678 7.66532 18.8687C7.7018 18.87 7.73812 18.8715 7.77492 18.8726C7.82746 18.8739 7.88049 18.8744 7.93336 18.8745C7.9459 18.8745 7.95827 18.8748 7.97064 18.875C8.41336 18.875 8.85591 18.8382 9.29365 18.7648C9.30104 18.7636 9.30827 18.7624 9.31582 18.7614C9.3621 18.7534 9.40838 18.7447 9.45466 18.7362C9.48102 18.731 9.50753 18.726 9.53357 18.7209C9.56056 18.7153 9.58772 18.7097 9.61472 18.7039C9.65987 18.6944 9.70487 18.6846 9.75002 18.6741C9.75806 18.6724 9.76625 18.6708 9.77445 18.6685C10.4399 18.5134 11.0825 18.2734 11.6862 17.9557L11.6864 17.9555C11.7259 17.9346 11.7645 17.9108 11.8039 17.8895C11.8508 17.8638 11.8974 17.8372 11.944 17.8106C11.9763 17.7921 12.0089 17.7751 12.0409 17.7559L12.0411 17.7558C12.0414 17.7556 12.0417 17.7553 12.042 17.7551C12.042 17.7551 12.042 17.7551 12.0422 17.7551C12.0427 17.7548 12.0431 17.7546 12.0436 17.7543C12.0439 17.7542 12.0441 17.754 12.0443 17.7538C12.0446 17.7537 12.0449 17.7535 12.0452 17.7534C12.0457 17.753 12.0462 17.7529 12.0467 17.7526C12.0484 17.7514 12.0502 17.7505 12.052 17.7493C12.0624 17.7431 12.0729 17.7368 12.0833 17.7305L12.001 17.5931Z" fill="#93D500"/>
<path d="M5.92591 8.40395C5.96287 8.37406 6.00015 8.34513 6.03791 8.31717L6.02956 8.30319L3.58683 4.24805C3.47338 4.32213 3.36121 4.39846 3.25178 4.47881C3.01556 4.65268 2.78689 4.84149 2.56689 5.04477L5.91273 8.39061L5.92591 8.40395Z" fill="#93D500"/>
<path d="M2.3349 5.26758C2.29682 5.30566 2.26082 5.34503 2.2237 5.3836C2.18658 5.42217 2.14882 5.46057 2.1125 5.49978C1.86535 5.76734 1.63941 6.04759 1.43565 6.33861C1.42585 6.35227 1.41605 6.36657 1.40641 6.38055C1.38343 6.41398 1.36077 6.4474 1.33843 6.48099C1.31513 6.51586 1.29199 6.55121 1.26949 6.5864C1.26098 6.59926 1.25262 6.61228 1.24442 6.62513C0.474855 7.83244 0.0625105 9.20172 0.00707059 10.5826C0.00498155 10.6361 0.00385669 10.6898 0.00273182 10.7433C0.00160695 10.7968 0 10.8505 0 10.904H4.73858C4.73858 10.8503 4.74356 10.7969 4.7463 10.7433C4.74903 10.6896 4.74983 10.6359 4.75513 10.5826C4.81636 9.9655 5.05451 9.36306 5.46975 8.85687C5.50349 8.81573 5.54158 8.77716 5.57773 8.73747C5.61373 8.69778 5.64715 8.65648 5.68556 8.61824L2.3349 5.26758Z" fill="#4D5A31"/>
<path d="M12.1121 4.09124C12.1057 4.08722 12.099 4.08337 12.0925 4.07951C12.0509 4.05396 12.0088 4.02937 11.9667 4.00479C11.9423 3.99064 11.9178 3.97699 11.8933 3.963C11.8685 3.94919 11.8441 3.93537 11.8192 3.92187C11.7764 3.89841 11.7335 3.87527 11.6905 3.85245C11.6837 3.84907 11.6771 3.84538 11.6702 3.84184C11.3924 3.69657 11.107 3.56866 10.8156 3.45762C10.8082 3.45456 10.8005 3.45167 10.793 3.44894C10.7295 3.42516 10.6659 3.40154 10.6018 3.37936C10.0842 3.19858 9.54888 3.07179 9.00509 3.00044C8.98291 2.99739 8.96057 2.99433 8.9384 2.99144C8.91606 2.98871 8.89389 2.98646 8.87171 2.98405C8.8288 2.97907 8.78606 2.97425 8.74299 2.97007C8.7311 2.96894 8.71905 2.96814 8.707 2.96685C8.65606 2.96219 8.60479 2.9577 8.55385 2.954C8.53409 2.95255 8.514 2.95143 8.49424 2.9503C8.45053 2.94741 8.40634 2.94436 8.36263 2.94243C8.33917 2.94114 8.31603 2.9405 8.29289 2.9397L8.29272 7.67121V7.68969C8.5365 7.71492 8.77802 7.76682 9.01232 7.84637L12.5081 4.3506C12.3784 4.26061 12.2471 4.17319 12.1121 4.09124Z" fill="#4D5A31"/>
<path d="M7.8107 2.93583C7.75719 2.93696 7.70352 2.93712 7.65 2.93921C7.31479 2.9527 6.98023 2.98693 6.64839 3.04253C6.64116 3.04382 6.63393 3.04494 6.62654 3.04623C6.57993 3.05426 6.53381 3.06278 6.48753 3.07146C6.46134 3.07644 6.43499 3.08126 6.40879 3.08656C6.38147 3.09203 6.35432 3.09765 6.32716 3.1036C6.28217 3.11292 6.23717 3.12272 6.19218 3.13316C6.18398 3.13493 6.17595 3.13686 6.16759 3.13863C5.50215 3.29386 4.85921 3.5341 4.25564 3.85179H4.25548C4.21611 3.87268 4.1777 3.89631 4.13849 3.91784C4.09157 3.94355 4.04497 3.97007 3.99836 3.99674C3.96381 4.01667 3.92862 4.03499 3.89423 4.05556C3.89391 4.05572 3.89343 4.05604 3.89311 4.0562H3.89295C3.89054 4.05764 3.88813 4.05893 3.88572 4.06038C3.87672 4.06584 3.8674 4.07034 3.8584 4.0758L3.85888 4.07661L3.9418 4.21432L6.30482 8.13722C6.35094 8.10942 6.39819 8.08419 6.44527 8.05896C6.49268 8.03341 6.54072 8.00946 6.58909 7.98648C6.92655 7.82579 7.28523 7.72616 7.64984 7.6892C7.70335 7.68373 7.75687 7.67923 7.81054 7.6765C7.86405 7.67377 7.91756 7.67104 7.97123 7.67104L7.97139 2.93262C7.91772 2.93262 7.86421 2.93487 7.8107 2.93583Z" fill="#6BA43A"/>
<path d="M15.933 10.512C15.9307 10.4694 15.9281 10.427 15.9252 10.3842C15.924 10.363 15.9228 10.342 15.9211 10.3204C15.9175 10.2705 15.9133 10.2203 15.9087 10.1704C15.9077 10.1573 15.9064 10.1445 15.9053 10.1315C15.8998 10.0755 15.8939 10.0196 15.8875 9.96386C15.8868 9.95936 15.8863 9.95486 15.8859 9.95036C15.8855 9.94827 15.8854 9.94602 15.8851 9.94393C15.8777 9.88367 15.8696 9.82341 15.8611 9.76331C15.861 9.76154 15.8608 9.75929 15.8603 9.75769C15.8058 9.37989 15.7242 9.00547 15.6154 8.63732C15.6146 8.63475 15.614 8.6325 15.6132 8.63025C15.596 8.57304 15.5785 8.51615 15.5605 8.45943C15.5581 8.45204 15.5555 8.44448 15.5532 8.43693C15.5364 8.38567 15.5193 8.33473 15.5016 8.28363C15.4967 8.26997 15.4918 8.25615 15.487 8.24217C15.4714 8.19798 15.4554 8.15395 15.439 8.10992C15.4311 8.08886 15.4231 8.06797 15.4149 8.04708C15.4011 8.01061 15.3867 7.97413 15.3723 7.93813C15.3607 7.90921 15.3491 7.88076 15.3373 7.85232C15.3257 7.82404 15.3138 7.79608 15.3019 7.7678C15.2863 7.7318 15.2706 7.6958 15.2547 7.65997C15.2457 7.63988 15.2367 7.61947 15.2273 7.59923C15.2077 7.55648 15.1876 7.51374 15.1674 7.47115C15.1611 7.4583 15.155 7.44512 15.1488 7.43226C15.1251 7.38357 15.1012 7.33488 15.0768 7.28667C15.0732 7.28009 15.0699 7.27334 15.0663 7.26659C15.039 7.2134 15.011 7.16005 14.9826 7.1075C14.9815 7.10573 14.9807 7.10364 14.9795 7.10187C14.8415 6.84798 14.69 6.60243 14.5261 6.36621L11.0292 9.86326C11.1087 10.0977 11.1605 10.3391 11.1857 10.5827H11.2043H15.9358C15.9347 10.5588 15.9341 10.5353 15.933 10.512Z" fill="#4D5A31"/>
<path d="M11.204 10.9037C11.204 10.9574 11.199 11.0107 11.1963 11.0644C11.1937 11.1181 11.1928 11.1718 11.1875 11.2251C11.1262 11.8422 10.8881 12.4448 10.473 12.951C10.4393 12.9921 10.4012 13.0307 10.365 13.0704C10.329 13.1101 10.2956 13.1514 10.2572 13.1896L13.6079 16.5401C13.6459 16.502 13.6818 16.4627 13.7189 16.4239C13.756 16.3852 13.7938 16.347 13.8299 16.3077C14.0779 16.0392 14.3045 15.7583 14.5087 15.4663C14.5169 15.4548 14.5246 15.4434 14.5325 15.432C14.5574 15.3961 14.5817 15.36 14.6061 15.3238C14.6275 15.2915 14.6488 15.2592 14.6696 15.2266C14.6799 15.211 14.6901 15.1948 14.7001 15.1792C15.4686 13.9725 15.8798 12.6047 15.935 11.225C15.9371 11.1714 15.9383 11.1178 15.9394 11.0643C15.9405 11.0107 15.9421 10.9572 15.9421 10.9036H11.204V10.9037Z" fill="#6BA43A"/>
<path d="M17.3499 1.52521C16.483 0.658262 15.0774 0.658262 14.2106 1.52521C13.519 2.21669 13.3808 3.25044 13.7926 4.08059L8.95715 8.91623C8.127 8.50453 7.09325 8.64257 6.40162 9.33404C5.53467 10.201 5.53483 11.6066 6.40162 12.4735C7.26873 13.3405 8.67433 13.3402 9.54128 12.4734C10.2328 11.7819 10.3708 10.7482 9.95893 9.91785L14.7944 5.08236C15.6247 5.49407 16.6583 5.35603 17.3498 4.6644C18.2167 3.79793 18.2167 2.39216 17.3499 1.52521Z" fill="#424143"/>
</svg>
