<svg width="20" height="20" viewBox="0 0 20 20" fill="none" xmlns="http://www.w3.org/2000/svg">
<g clip-path="url(#clip0_7262_24549)">
<path fill-rule="evenodd" clip-rule="evenodd" d="M6.64946 10C6.64946 11.8478 8.15215 13.3505 9.99994 13.3505C11.8477 13.3505 13.3504 11.8478 13.3504 10C13.3504 8.15225 11.8477 6.64956 9.99994 6.64956C8.15215 6.64956 6.64946 8.15225 6.64946 10ZM8.36355 10.0012C8.36355 9.09842 9.09718 8.36479 9.99994 8.36479C10.9015 8.36479 11.6363 9.09842 11.6363 10.0012C11.6363 10.9039 10.9027 11.6376 9.99994 11.6376C9.09718 11.6376 8.36355 10.9039 8.36355 10.0012Z" fill="white" fill-opacity="1"/>
<path fill-rule="evenodd" clip-rule="evenodd" d="M7.54654 17.4437C7.54654 18.8538 8.67669 20 10.0662 20C11.4318 20 12.586 18.8127 12.5871 17.4129C12.5882 17.1878 12.7277 16.9443 12.9082 16.8678C13.0853 16.7901 13.3504 16.8495 13.5024 16.9981C14.4943 17.9888 16.101 17.9934 17.0837 17.0118C17.5614 16.5341 17.8185 15.8919 17.8082 15.2051C17.7991 14.5309 17.5317 13.899 17.0643 13.4316C16.9112 13.2751 16.8563 13.0202 16.9363 12.8397C16.9375 12.8362 16.9386 12.834 16.9397 12.8305C17.0152 12.6546 17.2334 12.5209 17.4437 12.5197C18.8538 12.5197 20 11.3896 20 10C20 8.63444 18.8138 7.48029 17.4128 7.48029C17.2026 7.47915 16.95 7.31688 16.8678 7.12604C16.7866 6.94549 16.8518 6.64838 16.998 6.49869C17.9888 5.50566 17.9945 3.89898 17.0117 2.91738C16.5341 2.43972 15.9136 2.18261 15.2051 2.19289C14.5309 2.20203 13.899 2.46943 13.4316 2.93681C13.275 3.08879 13.0202 3.14364 12.8305 3.06022C12.6545 2.9848 12.5208 2.76654 12.5197 2.55628C12.5197 1.14615 11.3895 0 9.99997 0C8.63441 0 7.48026 1.18615 7.48026 2.58713C7.47912 2.79739 7.31685 3.04994 7.12601 3.13221C6.9466 3.21449 6.64835 3.14821 6.49866 3.00194C5.50563 2.01005 3.89895 2.00549 2.91735 2.98823C2.43969 3.46589 2.18258 4.1081 2.19286 4.79488C2.202 5.46909 2.4694 6.10102 2.93678 6.56839C3.0899 6.7238 3.14475 6.97863 3.04419 7.2106C2.97563 7.39687 2.75737 7.542 2.55625 7.54657C1.14613 7.54657 -3.05176e-05 8.67672 -3.05176e-05 10.0663C-3.05176e-05 11.4318 1.18612 12.586 2.5871 12.586C2.81222 12.5871 3.05562 12.7265 3.13218 12.9071C3.21103 13.0854 3.15047 13.3482 3.00191 13.5013C2.01117 14.4943 2.00545 16.101 2.9882 17.0826C3.46586 17.5603 4.09093 17.7991 4.79485 17.8071C5.46906 17.798 6.10099 17.5306 6.56836 17.0632C6.72377 16.9112 6.97975 16.8575 7.21058 16.9558C7.39684 17.0243 7.54197 17.2426 7.54654 17.4437ZM7.85279 15.3674C7.57282 15.244 7.27457 15.1834 6.97517 15.1834C6.3901 15.1834 5.80388 15.412 5.36164 15.8439C5.0394 16.165 4.50574 16.1776 4.1972 15.8679C3.88867 15.5605 3.89553 15.0303 4.22006 14.7057C4.87141 14.0395 5.06339 13.0385 4.70343 12.2226C4.35833 11.4193 3.51157 10.8753 2.59053 10.8719C2.12316 10.8719 1.71406 10.4948 1.71406 10.0663C1.71406 9.62976 2.09916 9.26066 2.57568 9.26066C3.50586 9.23895 4.34005 8.65273 4.63258 7.85282C4.99711 7.02777 4.80856 6.02903 4.15607 5.36167C3.83382 5.03942 3.82239 4.50691 4.13207 4.19724C4.43946 3.8887 4.96855 3.8967 5.29422 4.22009C5.95472 4.86687 6.9946 5.06342 7.81051 4.70346C8.62184 4.35493 9.19092 3.48874 9.19435 2.59056C9.19435 2.12319 9.57145 1.71409 9.99997 1.71409C10.4365 1.71409 10.8056 2.09919 10.8056 2.55971C10.8102 3.45675 11.3518 4.29208 12.1472 4.63261C12.9733 4.99829 13.9709 4.80745 14.6383 4.1561C14.9605 3.83499 15.4931 3.82356 15.8027 4.1321C16.1113 4.43949 16.1044 4.96972 15.7799 5.29425C15.1331 5.95589 14.9365 6.99463 15.2965 7.81054C15.645 8.62187 16.5112 9.19095 17.4094 9.19438C17.8768 9.19438 18.2859 9.57148 18.2859 10C18.2859 10.4365 17.9008 10.8056 17.4403 10.8056C16.5444 10.8102 15.7125 11.3496 15.3662 12.1506C15.0028 12.9745 15.1925 13.9721 15.8439 14.6383C16.1661 14.9606 16.1776 15.4931 15.8679 15.8028C15.5605 16.1124 15.0314 16.1033 14.7057 15.7799C14.0395 15.1297 13.0385 14.9366 12.2226 15.2965C11.4192 15.6416 10.8753 16.4884 10.8719 17.4094C10.8719 17.8768 10.4948 18.2859 10.0662 18.2859C9.62973 18.2859 9.26063 17.9008 9.26063 17.4243C9.23891 16.4941 8.6527 15.6599 7.85279 15.3674Z" fill="white" fill-opacity="1"/>
</g>
<defs>
<clipPath id="clip0_7262_24549">
<rect width="20" height="20" fill="white"/>
</clipPath>
</defs>
</svg>
