<svg width="14" height="15" viewBox="0 0 14 15" fill="none" xmlns="http://www.w3.org/2000/svg">
<path fill-rule="evenodd" clip-rule="evenodd" d="M4.65464 7.50002C4.65464 8.79348 5.70652 9.84536 6.99998 9.84536C8.29343 9.84536 9.34531 8.79348 9.34531 7.50002C9.34531 6.20657 8.29343 5.15469 6.99998 5.15469C5.70652 5.15469 4.65464 6.20657 4.65464 7.50002ZM5.85451 7.50082C5.85451 6.8689 6.36805 6.35536 6.99998 6.35536C7.6311 6.35536 8.14545 6.8689 8.14545 7.50082C8.14545 8.13275 7.63191 8.64629 6.99998 8.64629C6.36805 8.64629 5.85451 8.13275 5.85451 7.50082Z" fill="#797B80"/>
<path fill-rule="evenodd" clip-rule="evenodd" d="M5.2826 12.7106C5.2826 13.6977 6.07371 14.5 7.0464 14.5C8.00229 14.5 8.81019 13.6689 8.811 12.689C8.8118 12.5314 8.90938 12.361 9.03577 12.3074C9.15975 12.2531 9.34533 12.2947 9.45172 12.3986C10.146 13.0922 11.2707 13.0954 11.9586 12.4082C12.293 12.0739 12.473 11.6243 12.4658 11.1436C12.4594 10.6716 12.2722 10.2293 11.945 9.90212C11.8378 9.79254 11.7995 9.61416 11.8554 9.48777C11.8562 9.48537 11.857 9.48377 11.8578 9.48137C11.9106 9.35819 12.0634 9.2646 12.2106 9.2638C13.1977 9.2638 14 8.47269 14 7.5C14 6.54411 13.1697 5.7362 12.189 5.7362C12.0418 5.7354 11.865 5.62181 11.8075 5.48823C11.7507 5.36184 11.7963 5.15387 11.8986 5.04908C12.5922 4.35396 12.5962 3.22929 11.9082 2.54217C11.5739 2.2078 11.1395 2.02782 10.6436 2.03502C10.1716 2.04142 9.72929 2.2286 9.40213 2.55576C9.29254 2.66215 9.11416 2.70055 8.98138 2.64215C8.85819 2.58936 8.7646 2.43658 8.7638 2.2894C8.7638 1.30231 7.97269 0.5 7 0.5C6.04411 0.5 5.2362 1.33031 5.2362 2.31099C5.2354 2.45818 5.12181 2.63496 4.98823 2.69255C4.86264 2.75014 4.65387 2.70375 4.54908 2.60136C3.85396 1.90704 2.72929 1.90384 2.04217 2.59176C1.70781 2.92612 1.52783 3.37567 1.53503 3.85642C1.54142 4.32836 1.7286 4.77071 2.05577 5.09787C2.16295 5.20666 2.20135 5.38504 2.13096 5.54742C2.08296 5.67781 1.93018 5.7794 1.7894 5.7826C0.80231 5.7826 0 6.57371 0 7.5464C0 8.50229 0.830305 9.31019 1.81099 9.31019C1.96858 9.31099 2.13896 9.40858 2.19255 9.53497C2.24774 9.65975 2.20535 9.84373 2.10136 9.95092C1.40784 10.646 1.40384 11.7707 2.09176 12.4578C2.42612 12.7922 2.86367 12.9594 3.35642 12.965C3.82836 12.9586 4.27071 12.7714 4.59788 12.4442C4.70666 12.3378 4.88584 12.3003 5.04742 12.369C5.17781 12.417 5.2794 12.5698 5.2826 12.7106ZM5.49697 11.2572C5.30099 11.1708 5.09222 11.1284 4.88264 11.1284C4.47309 11.1284 4.06274 11.2884 3.75317 11.5907C3.5276 11.8155 3.15404 11.8243 2.93806 11.6075C2.72209 11.3924 2.72689 11.0212 2.95406 10.794C3.41001 10.3277 3.5444 9.62696 3.29242 9.05582C3.05085 8.49349 2.45812 8.11273 1.81339 8.11033C1.48623 8.11033 1.19986 7.84636 1.19986 7.5464C1.19986 7.24083 1.46943 6.98246 1.803 6.98246C2.45412 6.96726 3.03805 6.55691 3.24283 5.99697C3.498 5.41944 3.36602 4.72032 2.90927 4.25317C2.68369 4.0276 2.6757 3.65484 2.89247 3.43806C3.10765 3.22209 3.478 3.22769 3.70598 3.45406C4.16832 3.90681 4.89624 4.04439 5.46738 3.79242C6.03531 3.54845 6.43367 2.94212 6.43607 2.31339C6.43607 1.98623 6.70004 1.69986 7 1.69986C7.30557 1.69986 7.56394 1.96943 7.56394 2.2918C7.56714 2.91972 7.94629 3.50446 8.50303 3.74283C9.08136 3.9988 9.77968 3.86522 10.2468 3.40927C10.4724 3.18449 10.8452 3.17649 11.0619 3.39247C11.2779 3.60764 11.2731 3.9788 11.0459 4.20598C10.5932 4.66912 10.4556 5.39624 10.7076 5.96737C10.9515 6.53531 11.5579 6.93366 12.1866 6.93606C12.5138 6.93606 12.8001 7.20003 12.8001 7.5C12.8001 7.80557 12.5306 8.06394 12.2082 8.06394C11.5811 8.06713 10.9987 8.44469 10.7564 9.00543C10.502 9.58216 10.6348 10.2805 11.0907 10.7468C11.3163 10.9724 11.3243 11.3452 11.1075 11.5619C10.8924 11.7787 10.522 11.7723 10.294 11.5459C9.82768 11.0908 9.12696 10.9556 8.55582 11.2076C7.99349 11.4491 7.61273 12.0419 7.61033 12.6866C7.61033 13.0138 7.34636 13.3001 7.0464 13.3001C6.74083 13.3001 6.48246 13.0306 6.48246 12.697C6.46726 12.0459 6.05691 11.4619 5.49697 11.2572Z" fill="#797B80"/>
</svg>
