<svg width="28" height="38" viewBox="0 0 28 38" fill="none" xmlns="http://www.w3.org/2000/svg">
<path d="M14.6278 0.308418C14.0991 -0.102806 13.3354 -0.102806 12.8067 0.308418L0.176239 9.12036C0.0587463 9.23786 0 9.2966 0 9.41409V12.4689C0 12.7626 0.293731 12.9389 0.528717 12.7626L12.8067 4.24442C13.3354 3.8332 14.0991 3.8332 14.6278 4.24442L26.9058 12.8214C27.1408 12.9976 27.4345 12.8214 27.4345 12.5276V9.41409C27.4345 9.2966 27.3758 9.17911 27.2583 9.12036L14.6278 0.308418Z" fill="#C8FB39"/>
<path d="M12.8067 7.7104L0.176239 16.5811C0.0587463 16.6398 0 16.7573 0 16.8748V19.9296C0 20.2234 0.293731 20.3996 0.528717 20.2234L12.7479 11.6464C13.2767 11.2352 14.0404 11.2352 14.5691 11.6464L26.8471 20.2234C27.082 20.3996 27.3758 20.2234 27.3758 19.9296V16.8748C27.3758 16.7573 27.317 16.6398 27.1995 16.5811L14.6278 7.7104C14.0991 7.35793 13.3354 7.35793 12.8067 7.7104Z" fill="#C8FB39"/>
<path d="M14.6278 15.1712C14.0991 14.76 13.3354 14.76 12.8067 15.1712L0.176239 23.9832C0.0587463 24.0419 0 24.1594 0 24.2769V27.3317C0 27.6254 0.293731 27.8017 0.528717 27.6254L12.7479 19.0485C13.2767 18.6372 14.0404 18.6372 14.5691 19.0485L19.0338 22.162C19.21 22.2795 19.21 22.5732 19.0338 22.7495L14.6866 25.8043C14.1579 26.2155 13.3942 26.2155 12.8654 25.8043L10.6331 24.4531C10.5156 24.3944 10.3393 24.3944 10.2806 24.4531L8.04824 25.9805C7.872 26.098 7.872 26.3918 8.04824 26.568L12.8654 29.7403C13.3942 30.1515 14.1579 30.1515 14.6866 29.7403L22.0886 24.5706C22.2061 24.5119 22.3823 24.5119 22.4998 24.5706L24.2035 25.7455C24.3797 25.863 24.3797 26.1568 24.2035 26.333L14.6278 33.0301C14.0991 33.4413 13.3354 33.4413 12.8067 33.0301L5.52215 27.9779C5.40466 27.9192 5.22842 27.9192 5.11093 27.9779L2.93731 29.5053C2.76108 29.6228 2.76108 29.9165 2.93731 30.0928L12.8067 36.9661C13.3354 37.3773 14.0991 37.3773 14.6278 36.9661L27.2583 28.0954C27.3758 28.0367 27.4345 27.9192 27.4345 27.8017V24.2181C27.4345 24.1007 27.3758 23.9832 27.2583 23.9244L14.6278 15.1712Z" fill="#C8FB39"/>
</svg>
