<svg width="15" height="15" viewBox="0 0 15 15" fill="none" xmlns="http://www.w3.org/2000/svg">
<g clip-path="url(#clip0_183_2528)">
<path d="M1.27734 1.04132C1.62244 1.04132 1.90221 1.32126 1.90234 1.66632V13.3333C1.90217 13.6783 1.62241 13.9583 1.27734 13.9583C0.932415 13.9581 0.652519 13.6782 0.652344 13.3333V1.66632C0.652476 1.32136 0.932387 1.04149 1.27734 1.04132Z" fill="#797B80"/>
<path d="M7.93359 3.47784C8.17616 3.31789 8.50625 3.34444 8.71973 3.55792C8.93318 3.7714 8.95975 4.1015 8.7998 4.34406L8.71973 4.44269L6.67578 6.48566H13.7217C14.0667 6.48566 14.3465 6.76566 14.3467 7.11066C14.3467 7.45583 14.0669 7.73566 13.7217 7.73566H6.67578L8.71973 9.78058C8.96346 10.0246 8.96345 10.4204 8.71973 10.6644C8.50616 10.8776 8.17606 10.9045 7.93359 10.7444L7.83496 10.6644L4.72461 7.55304C4.7174 7.54583 4.71186 7.53707 4.70508 7.5296C4.68913 7.51204 4.67502 7.49324 4.66113 7.47394C4.65331 7.46308 4.64473 7.45294 4.6377 7.44171C4.62039 7.4141 4.60566 7.38508 4.59277 7.3548C4.59078 7.35011 4.58781 7.34585 4.58594 7.34113C4.55765 7.26985 4.54102 7.192 4.54102 7.11066C4.54107 7.02888 4.55732 6.95079 4.58594 6.87921C4.58873 6.87219 4.59264 6.86564 4.5957 6.8587C4.60751 6.83204 4.62046 6.80611 4.63574 6.78156C4.64348 6.7691 4.65244 6.75742 4.66113 6.74542C4.67599 6.72493 4.69181 6.70534 4.70898 6.68683C4.71429 6.6811 4.71905 6.67482 4.72461 6.66925L7.83496 3.55792L7.93359 3.47784Z" fill="#797B80"/>
</g>
<defs>
<clipPath id="clip0_183_2528">
<rect x="0.5" y="0.5" width="14" height="14" fill="white"/>
</clipPath>
</defs>
</svg>
