<svg width="15" height="15" viewBox="0 0 15 15" fill="none" xmlns="http://www.w3.org/2000/svg">
<g clip-path="url(#clip0_196_2581)">
<path d="M1.27734 1.04132C1.62244 1.04132 1.90221 1.32126 1.90234 1.66632V13.3333C1.90217 13.6783 1.62241 13.9583 1.27734 13.9583C0.932415 13.9581 0.652519 13.6782 0.652344 13.3333V1.66632C0.652476 1.32136 0.932387 1.04149 1.27734 1.04132Z" fill="#797B80"/>
<path d="M10.1689 3.55792C10.3824 3.34444 10.7125 3.31789 10.9551 3.47784L11.0537 3.55792L14.1641 6.66925C14.1695 6.67466 14.1735 6.68127 14.1787 6.68683C14.1959 6.70535 14.2117 6.72492 14.2266 6.74542C14.2353 6.75743 14.2442 6.76909 14.252 6.78156C14.2673 6.80613 14.2801 6.83201 14.292 6.8587C14.2951 6.86565 14.299 6.87218 14.3018 6.87921C14.3305 6.95088 14.3476 7.02875 14.3477 7.11066C14.3477 7.19212 14.3301 7.26976 14.3018 7.34113C14.2999 7.34574 14.2978 7.35022 14.2959 7.3548C14.2829 7.38524 14.2674 7.41397 14.25 7.44171C14.2429 7.45295 14.2344 7.46307 14.2266 7.47394C14.2126 7.49325 14.1986 7.51203 14.1826 7.5296C14.176 7.53691 14.1711 7.54598 14.1641 7.55304L11.0537 10.6644L10.9551 10.7444C10.7126 10.9045 10.3825 10.8776 10.1689 10.6644C9.92522 10.4203 9.92519 10.0246 10.1689 9.78058L12.2129 7.73566H5.16699C4.82181 7.73566 4.54199 7.45583 4.54199 7.11066C4.5422 6.76566 4.82195 6.48566 5.16699 6.48566H12.2129L10.1689 4.44269L10.0889 4.34406C9.92892 4.10149 9.95548 3.7714 10.1689 3.55792Z" fill="#797B80"/>
</g>
<defs>
<clipPath id="clip0_196_2581">
<rect x="0.5" y="0.5" width="14" height="14" fill="white"/>
</clipPath>
</defs>
</svg>
