<svg width="14" height="15" viewBox="0 0 14 15" fill="none" xmlns="http://www.w3.org/2000/svg">
<path fill-rule="evenodd" clip-rule="evenodd" d="M5.8002 5.1C5.8002 3.22223 7.32243 1.7 9.2002 1.7C11.078 1.7 12.6002 3.22223 12.6002 5.1C12.6002 6.97777 11.078 8.5 9.2002 8.5C7.32243 8.5 5.8002 6.97777 5.8002 5.1ZM9.2002 0.5C6.65969 0.5 4.6002 2.55949 4.6002 5.1C4.6002 6.154 4.95468 7.1252 5.55093 7.90089L5.54393 7.90777L3.18016 10.2715C3.17875 10.2729 3.17734 10.2743 3.17593 10.2757C3.17453 10.2771 3.17313 10.2786 3.17174 10.28L1.58047 11.8712L1.57593 11.8757L1.57143 11.8803L1.17593 12.2758L0.375931 13.0758C0.141617 13.3101 0.141617 13.69 0.375931 13.9243C0.610246 14.1586 0.990145 14.1586 1.22446 13.9243L2.00022 13.1486L3.17593 14.3243C3.41025 14.5586 3.79014 14.5586 4.02446 14.3243C4.25877 14.0899 4.25877 13.7101 4.02446 13.4757L2.84875 12.3L3.60022 11.5485L4.77593 12.7243C5.01025 12.9586 5.39014 12.9586 5.62446 12.7243C5.85877 12.4899 5.85877 12.1101 5.62446 11.8757L4.44874 10.7L6.39246 8.75629L6.39934 8.7493C7.17503 9.34553 8.14622 9.7 9.2002 9.7C11.7407 9.7 13.8002 7.64051 13.8002 5.1C13.8002 2.55949 11.7407 0.5 9.2002 0.5Z" fill="#797B80"/>
</svg>
